<?xml version="1.0" encoding="UTF-8" standalone="no"?>
<!-- Created with Inkscape (http://www.inkscape.org/) -->

<svg
   width="100"
   height="100"
   viewBox="0 0 26.458333 26.458333"
   version="1.1"
   id="svg1"
   inkscape:version="1.3.2 (091e20e, 2023-11-25, custom)"
   sodipodi:docname="adulto.svg"
   xmlns:inkscape="http://www.inkscape.org/namespaces/inkscape"
   xmlns:sodipodi="http://sodipodi.sourceforge.net/DTD/sodipodi-0.dtd"
   xmlns="http://www.w3.org/2000/svg"
   xmlns:svg="http://www.w3.org/2000/svg">
  <sodipodi:namedview
     id="namedview1"
     pagecolor="#ffffff"
     bordercolor="#000000"
     borderopacity="0.25"
     inkscape:showpageshadow="2"
     inkscape:pageopacity="0.0"
     inkscape:pagecheckerboard="0"
     inkscape:deskcolor="#d1d1d1"
     inkscape:document-units="mm"
     inkscape:zoom="2.8284271"
     inkscape:cx="119.32427"
     inkscape:cy="107.30345"
     inkscape:window-width="1920"
     inkscape:window-height="991"
     inkscape:window-x="-9"
     inkscape:window-y="-9"
     inkscape:window-maximized="1"
     inkscape:current-layer="layer1" />
  <defs
     id="defs1" />
  <g
     inkscape:label="Camada 1"
     inkscape:groupmode="layer"
     id="layer1">
    <path
       style="color:#000000;fill:#000000;-inkscape-stroke:none"
       d="m 12.928384,6.2965244 v 0 c -1.057453,0.04191 -2.061154,0.279262 -2.8125,0.648437 -0.829552,0.407602 -1.431026,1.00198 -1.515625,1.744141 -0.01059,0.0516 -0.01953,0.105239 -0.01953,0.164062 v 0.002 0.460938 0.09766 8.1054686 c 0,0.460446 0.379398,0.841797 0.839844,0.841797 h 0.15625 v 6.658203 c -1.89e-4,0.387749 0.319282,0.709173 0.707031,0.708984 h 1.248047 c 0.38703,-6.94e-4 0.70722,-0.321768 0.707031,-0.708984 v -6.248047 c 0,-0.278261 0.228996,-0.507812 0.50586,-0.507813 h 0.478515 0.01172 0.476562 c 0.276849,0 0.507813,0.229557 0.507813,0.507813 v 6.248047 c -1.89e-4,0.387749 0.319282,0.709173 0.707031,0.708984 h 1.246094 c 0.387749,1.89e-4 0.709174,-0.321235 0.708984,-0.708984 v -6.660156 h 0.154297 c 0.460446,0 0.841797,-0.379399 0.841797,-0.839844 v -8.1054686 -0.09766 -0.460938 -0.002 -0.002 -0.002 c -0.0031,-0.778735 -0.597312,-1.422894 -1.439453,-1.859375 -0.842141,-0.436481 -1.969669,-0.693403 -3.210938,-0.693359 z m 0.298828,0.599609 h 0.002 c 1.156288,2.74e-4 2.202487,0.248022 2.933593,0.626953 0.731572,0.379173 1.113406,0.861141 1.115235,1.328125 v 0.002 0.002 0.460938 0.09766 8.1054686 c 0,0.138674 -0.103515,0.240234 -0.242188,0.240234 H 16.2819 v 7.259766 c 3.1e-5,0.06327 -0.04611,0.107453 -0.109375,0.107422 h -1.246094 c -0.06327,3.1e-5 -0.107452,-0.04415 -0.107422,-0.107422 v -6.248047 c 0,-0.607003 -0.499532,-1.109375 -1.107422,-1.109375 h -0.476562 -0.01172 -0.478515 c -0.607896,0 -1.105469,0.502377 -1.105469,1.109375 v 6.248047 c 3.1e-5,0.06327 -0.04415,0.107453 -0.107422,0.107422 h -1.248047 c -0.06327,3.1e-5 -0.107453,-0.04415 -0.107422,-0.107422 V 17.759512 H 9.420571 c -0.138672,0 -0.240235,-0.101561 -0.240235,-0.240234 v -8.1054686 -0.09766 -0.460938 -0.002 c 0,-0.01687 0.0026,-0.03508 0.0078,-0.05664 l 0.0039,-0.01953 0.002,-0.01758 c 0.04988,-0.44878 0.461005,-0.918426 1.1875,-1.27539 0.726018,-0.35673 1.736649,-0.586328 2.845703,-0.587891 z"
       id="path4"
       sodipodi:nodetypes="ccscscccsscccccssccsscccccssccccccscccsscccccsscccccssccsscccccsscccscccscc" />
    <path
       style="color:#000000;fill:#000000;-inkscape-stroke:none"
       d="m 13.229166,0.7301178 c -0.662797,-7.97e-5 -1.306421,0.2654397 -1.775391,0.734375 -0.469738,0.4697258 -0.734455,1.1147536 -0.734375,1.7773437 5.7e-5,0.6626614 0.265336,1.3064319 0.734375,1.7753909 0.468815,0.468701 1.11238,0.734454 1.775391,0.734375 0.662558,-5.7e-5 1.304493,-0.265443 1.773437,-0.734375 0.46902,-0.469032 0.734318,-1.1128325 0.734375,-1.7753909 8e-5,-0.6609231 -0.259954,-1.3067368 -0.730469,-1.7773437 C 14.536803,0.9947184 13.89163,0.7301747 13.229166,0.7301178 Z m 0,0.6015625 c 0.501454,4.31e-5 0.99715,0.20413 1.351562,0.5585937 0.354462,0.3545314 0.556701,0.850388 0.556641,1.3515625 -4.3e-5,0.5011395 -0.204477,0.9954839 -0.558594,1.3496099 -0.354215,0.354206 -0.848469,0.55855 -1.349609,0.558593 -0.501366,6.1e-5 -0.997499,-0.204615 -1.351563,-0.558593 -0.3541,-0.3540393 -0.558551,-0.8483335 -0.558594,-1.3496099 -6e-5,-0.5014475 0.204053,-0.9970299 0.558594,-1.3515625 0.354169,-0.3541429 0.850322,-0.558654 1.351563,-0.5585937 z"
       id="path3" />
  </g>
</svg>
