<?xml version="1.0" encoding="UTF-8" standalone="no"?>
<!-- Created with Inkscape (http://www.inkscape.org/) -->

<svg
   width="100"
   height="100"
   viewBox="0 0 26.458333 26.458333"
   version="1.1"
   id="svg1"
   inkscape:version="1.3.2 (091e20e, 2023-11-25, custom)"
   sodipodi:docname="crianca.svg"
   xmlns:inkscape="http://www.inkscape.org/namespaces/inkscape"
   xmlns:sodipodi="http://sodipodi.sourceforge.net/DTD/sodipodi-0.dtd"
   xmlns="http://www.w3.org/2000/svg"
   xmlns:svg="http://www.w3.org/2000/svg">
  <sodipodi:namedview
     id="namedview1"
     pagecolor="#ffffff"
     bordercolor="#000000"
     borderopacity="0.25"
     inkscape:showpageshadow="2"
     inkscape:pageopacity="0.0"
     inkscape:pagecheckerboard="0"
     inkscape:deskcolor="#d1d1d1"
     inkscape:document-units="mm"
     inkscape:zoom="2.768771"
     inkscape:cx="42.07643"
     inkscape:cy="26.184903"
     inkscape:window-width="1920"
     inkscape:window-height="991"
     inkscape:window-x="-9"
     inkscape:window-y="-9"
     inkscape:window-maximized="1"
     inkscape:current-layer="layer1" />
  <defs
     id="defs1" />
  <g
     inkscape:label="Camada 1"
     inkscape:groupmode="layer"
     id="layer1">
    <path
       id="path8"
       style="color:#000000;fill:#000000;-inkscape-stroke:none"
       d="m 13.222992,4.5017919 c -0.66279,-8e-5 -1.306115,0.265372 -1.775085,0.734322 -0.469737,0.469732 -0.734407,1.113012 -0.734322,1.775602 5.5e-5,0.66266 0.265278,1.306126 0.734322,1.775085 0.468809,0.468704 1.112074,0.734402 1.775085,0.734323 0.0021,-10e-7 0.0041,-5.12e-4 0.0062,-5.17e-4 0.0021,5e-6 0.0041,5.16e-4 0.0062,5.17e-4 0.663011,7.9e-5 1.306275,-0.26562 1.775085,-0.734323 0.469044,-0.46896 0.734267,-1.112425 0.734322,-1.775085 8.5e-5,-0.66259 -0.264585,-1.30587 -0.734322,-1.775602 -0.468971,-0.46895 -1.112295,-0.734402 -1.775085,-0.734322 -0.0021,0 -0.0041,5.11e-4 -0.0062,5.16e-4 -0.0021,-5e-6 -0.0041,-5.16e-4 -0.0062,-5.16e-4 z m 0.0062,0.599963 c 0.49933,0.00172 0.992713,0.205103 1.345655,0.558106 0.354467,0.354544 0.556616,0.850682 0.556555,1.351855 -4.3e-5,0.50114 -0.204498,0.997214 -0.558622,1.351339 -0.352747,0.352736 -0.844579,0.556374 -1.343588,0.558105 -0.499014,-0.00173 -0.990836,-0.205365 -1.343587,-0.558105 -0.354125,-0.354125 -0.558579,-0.850199 -0.558622,-1.351339 -6.1e-5,-0.501173 0.202087,-0.997311 0.556555,-1.351855 0.352942,-0.353003 0.846325,-0.556382 1.345654,-0.558106 z m -5.18728,2.216919 c -0.182399,0.00252 -0.361875,0.073974 -0.494027,0.206706 l -0.875398,0.876949 c -0.274765,0.274117 -0.274765,0.727372 0,1.001489 l 2.902665,2.9062831 v 8.937439 c -1.67e-4,0.339799 0.246426,0.628413 0.568441,0.694531 0.04543,0.0093 0.09261,0.01449 0.140559,0.01447 h 0.0016 1.244368 c 0.04847,2.4e-5 0.0957,-0.0049 0.141594,-0.01447 0.322017,-0.06612 0.569125,-0.354727 0.568957,-0.694531 v -2.964677 c 0,-0.243478 0.175311,-0.44987 0.404627,-0.497644 0.0323,-0.0066 0.06565,-0.01034 0.09973,-0.01034 h 0.476457 0.0015 0.0124 0.0015 0.474906 0.0016 c 0.03406,1.07e-4 0.06747,0.0036 0.09974,0.01034 0.229316,0.04777 0.404627,0.254166 0.404627,0.497644 v 2.964677 c -1.68e-4,0.339802 0.246425,0.628413 0.56844,0.694531 0.04544,0.0093 0.09261,0.01449 0.14056,0.01447 h 0.0015 1.244369 c 0.04847,2.4e-5 0.0957,-0.0049 0.141593,-0.01447 0.322017,-0.06612 0.569124,-0.354731 0.568958,-0.694531 v -8.937439 l 2.902665,-2.9062831 c 0.274769,-0.274116 0.274769,-0.727373 0,-1.001489 l -0.875399,-0.876949 c -0.132152,-0.132732 -0.311628,-0.20419 -0.494026,-0.206706 -0.182398,-0.0025 -0.367372,0.06391 -0.50953,0.206706 l -0.550871,0.55087 h -0.0016 l -0.860929,0.861963 -0.321428,0.321428 c -0.808419,0.8083911 -1.870752,1.2078941 -2.935221,1.2050941 h -0.0015 -0.0124 -0.0015 c -0.39901,0.001 -0.798153,-0.05457 -1.18339,-0.166915 -1.56e-4,-4.5e-5 -3.61e-4,4.6e-5 -5.17e-4,0 -0.128307,-0.03744 -0.255013,-0.08119 -0.379822,-0.131258 -1.45e-4,-5.8e-5 -3.72e-4,5.8e-5 -5.17e-4,0 -0.249775,-0.100232 -0.49104,-0.2262581 -0.720886,-0.3772381 -1.15e-4,-7.6e-5 -4.01e-4,7.6e-5 -5.17e-4,0 -0.229782,-0.151039 -0.447569,-0.327687 -0.649572,-0.529683 h -5.17e-4 L 9.964793,8.9382129 9.103864,8.0762499 h -0.00155 l -0.55087,-0.55087 C 8.409286,7.3825839 8.224312,7.3161739 8.041914,7.3186739 Z m 0.00207,0.59738 c 0.026981,-0.00181 0.056049,0.00736 0.081649,0.033072 l 1.736328,1.734262 c 0.057775,0.057772 0.116723,0.11379 0.176733,0.167948 0.179851,0.1623091 0.369576,0.3083971 0.566891,0.4382161 1.99e-4,1.31e-4 3.17e-4,3.86e-4 5.17e-4,5.17e-4 0.06562,0.04315 0.132209,0.08447 0.199471,0.124023 2.04e-4,1.2e-4 3.13e-4,3.97e-4 5.16e-4,5.17e-4 0.06727,0.03955 0.135357,0.07722 0.204122,0.113171 1.34e-4,7e-5 3.84e-4,-6.9e-5 5.17e-4,0 0.128441,0.06713 0.259286,0.127317 0.392224,0.181901 0.0097,0.004 0.01922,0.0085 0.02894,0.0124 3.56e-4,1.43e-4 6.78e-4,3.73e-4 0.001,5.17e-4 0.0712,0.02866 0.143236,0.05554 0.21549,0.08061 0.07249,0.02516 0.145695,0.04873 0.219108,0.07028 0.03449,0.01012 0.0692,0.01858 0.10387,0.0279 0.03928,0.01057 0.07833,0.02198 0.117822,0.03152 3.24e-4,7.8e-5 7.1e-4,-7.8e-5 10e-4,0 0.07399,0.01786 0.148629,0.03379 0.223242,0.04806 0.09399,0.01797 0.18898,0.02804 0.283704,0.04031 0.05629,0.0073 0.111998,0.01901 0.168465,0.02429 5.09e-4,4.8e-5 10e-4,-4.7e-5 0.0015,0 0.151021,0.01407 0.302743,0.02101 0.454236,0.02067 5.16e-4,-1e-6 10e-4,10e-7 0.0015,0 h 0.0124 c 0.195483,5.14e-4 0.390566,-0.01528 0.584977,-0.03876 0.108467,-0.0131 0.216996,-0.02595 0.324528,-0.04651 0.04242,-0.0081 0.08438,-0.01811 0.126607,-0.02739 0.06363,-0.01397 0.127055,-0.02887 0.190169,-0.04547 0.116746,-0.03072 0.232711,-0.06465 0.347266,-0.104386 3.61e-4,-1.26e-4 6.72e-4,-3.92e-4 0.001,-5.17e-4 0.113888,-0.03952 0.225773,-0.0849 0.336931,-0.133325 0.140748,-0.06132 0.279095,-0.129566 0.414445,-0.205156 0.03023,-0.01688 0.06102,-0.03253 0.09095,-0.05013 2.04e-4,-1.2e-4 3.13e-4,-3.97e-4 5.17e-4,-5.17e-4 0.06726,-0.03955 0.133851,-0.08087 0.199471,-0.124023 2e-4,-1.31e-4 3.17e-4,-3.86e-4 5.17e-4,-5.17e-4 0.06561,-0.04316 0.130476,-0.08812 0.194303,-0.134875 1.94e-4,-1.43e-4 3.23e-4,-3.75e-4 5.17e-4,-5.17e-4 0.06382,-0.04676 0.12673,-0.09537 0.188619,-0.145728 1.87e-4,-1.52e-4 3.29e-4,-3.64e-4 5.17e-4,-5.16e-4 0.124142,-0.1010371 0.244179,-0.2090441 0.359668,-0.3245281 l 1.736328,-1.734262 c 0.0512,-0.051429 0.115115,-0.036979 0.151929,0 l 0.127124,0.127124 h -10e-4 l 0.500745,0.499712 0.250114,0.250114 c 0.04485,0.044739 0.04485,0.107185 0,0.151928 l -2.923336,2.9279871 c -0.07341,0.07333 -0.124755,0.163528 -0.145728,0.264583 -0.0071,0.0337 -0.01081,0.06845 -0.01085,0.104387 v 8.972579 c 8e-6,0.01582 -0.0026,0.03069 -0.0078,0.04393 -0.0053,0.01324 -0.013,0.02488 -0.02274,0.03462 -0.0097,0.0097 -0.02138,0.01741 -0.03462,0.02274 -0.01324,0.0053 -0.02811,0.0083 -0.04393,0.0083 h -1.244369 c -5.39e-4,0 -10e-4,6e-6 -0.0015,0 -0.01545,7e-6 -0.02956,-0.0032 -0.04237,-0.0083 -0.01324,-0.0053 -0.02488,-0.013 -0.03462,-0.02274 -0.0097,-0.0097 -0.01741,-0.02138 -0.02274,-0.03462 -0.0051,-0.01324 -0.0078,-0.02811 -0.0078,-0.04393 v -2.964677 c 0,-0.15175 -0.03152,-0.296641 -0.08785,-0.428915 -0.02807,-0.06614 -0.06249,-0.129142 -0.102319,-0.188102 -0.03991,-0.05907 -0.08571,-0.11401 -0.135909,-0.164331 -0.100346,-0.100589 -0.219559,-0.181868 -0.351917,-0.238228 -0.06586,-0.02807 -0.1347,-0.05025 -0.206189,-0.06511 -3.32e-4,-6.8e-5 -7.01e-4,6.9e-5 -10e-4,0 -0.03542,-0.0073 -0.07148,-0.01324 -0.108004,-0.01705 -5.08e-4,-5.2e-5 -10e-4,5.2e-5 -0.0016,0 -0.03654,-0.0038 -0.07364,-0.0056 -0.111104,-0.0057 h -0.0016 -0.474906 -0.0015 -0.0124 -0.0015 -0.476457 c -0.07546,0 -0.14934,0.0081 -0.220658,0.02274 -0.215805,0.04439 -0.409086,0.152405 -0.559656,0.303341 -0.07528,0.07546 -0.135786,0.164111 -0.187069,0.258382 -0.05135,0.09408 -0.09349,0.193652 -0.115755,0.301274 -0.01485,0.07178 -0.02274,0.145817 -0.02274,0.221692 v 2.964677 c 7e-6,0.01582 -0.0026,0.03069 -0.0078,0.04393 -0.0053,0.01324 -0.013,0.02488 -0.02274,0.03462 -0.0097,0.0097 -0.02138,0.01741 -0.03462,0.02274 -0.01324,0.0053 -0.02811,0.0083 -0.04392,0.0083 h -1.244368 c -5.39e-4,0 -10e-4,6e-6 -0.0016,0 -0.01545,7e-6 -0.02956,-0.0032 -0.04237,-0.0083 -0.01324,-0.0053 -0.02488,-0.013 -0.03462,-0.02274 -0.0097,-0.0097 -0.01741,-0.02138 -0.02274,-0.03462 -0.0051,-0.01324 -0.0078,-0.02811 -0.0078,-0.04393 v -8.972579 c -7.6e-5,-0.07188 -0.01494,-0.13947 -0.04186,-0.201538 -0.02676,-0.06207 -0.06578,-0.118548 -0.114722,-0.167432 L 7.096751,8.9780039 c -0.04485,-0.044743 -0.04485,-0.107189 0,-0.151928 L 7.346865,8.5759619 7.84761,8.0762499 H 7.84658 l 0.127124,-0.127124 c 0.018407,-0.01849 0.0433,-0.031266 0.07028,-0.033072 z" />
  </g>
</svg>
