<?xml version="1.0" encoding="UTF-8" standalone="no"?>
<!-- Created with Inkscape (http://www.inkscape.org/) -->

<svg
   width="100"
   height="100"
   viewBox="0 0 26.458333 26.458333"
   version="1.1"
   id="svg1"
   inkscape:version="1.3.2 (091e20e, 2023-11-25, custom)"
   sodipodi:docname="emergencia.svg"
   xmlns:inkscape="http://www.inkscape.org/namespaces/inkscape"
   xmlns:sodipodi="http://sodipodi.sourceforge.net/DTD/sodipodi-0.dtd"
   xmlns="http://www.w3.org/2000/svg"
   xmlns:svg="http://www.w3.org/2000/svg">
  <sodipodi:namedview
     id="namedview1"
     pagecolor="#ffffff"
     bordercolor="#000000"
     borderopacity="0.25"
     inkscape:showpageshadow="2"
     inkscape:pageopacity="0.0"
     inkscape:pagecheckerboard="0"
     inkscape:deskcolor="#d1d1d1"
     inkscape:document-units="mm"
     inkscape:zoom="2.8284271"
     inkscape:cx="57.098872"
     inkscape:cy="50.734911"
     inkscape:window-width="1920"
     inkscape:window-height="991"
     inkscape:window-x="-9"
     inkscape:window-y="-9"
     inkscape:window-maximized="1"
     inkscape:current-layer="layer1" />
  <defs
     id="defs1" />
  <g
     inkscape:label="Camada 1"
     inkscape:groupmode="layer"
     id="layer1">
    <path
       id="path9"
       style="color:#000000;fill:#000000;stroke-linecap:round;stroke-miterlimit:4.2;-inkscape-stroke:none"
       d="m 13.229942,5.6205877 c -0.766981,-1.5e-5 -1.460463,0.05284 -1.978174,0.139009 -0.258856,0.04309 -0.472993,0.09251 -0.644922,0.160197 -0.08596,0.03384 -0.161938,0.07028 -0.236161,0.130742 -0.07422,0.06046 -0.164211,0.16794 -0.163814,0.318327 a 0.29306751,0.29306751 0 0 0 0.294555,0.293005 0.29306751,0.29306751 0 0 0 0.259933,-0.166398 c 0.01017,-0.0061 0.02102,-0.01548 0.06046,-0.03101 0.104139,-0.041 0.290517,-0.088 0.52555,-0.127124 0.470058,-0.07824 1.141954,-0.128688 1.882572,-0.128674 0.740519,10e-6 1.411069,0.05044 1.881022,0.128674 0.234979,0.03912 0.421453,0.08613 0.525549,0.127124 0.02531,0.01 0.04525,0.02012 0.05943,0.02791 a 0.29306751,0.29306751 0 0 0 0.26045,0.169499 0.29306751,0.29306751 0 0 0 0.295072,-0.293005 c 3.95e-4,-0.150366 -0.0896,-0.257863 -0.163814,-0.318327 -0.07421,-0.06046 -0.150729,-0.0969 -0.236678,-0.130742 -0.171898,-0.06769 -0.385608,-0.117113 -0.644405,-0.160197 -0.517608,-0.08617 -1.209745,-0.138999 -1.976624,-0.139009 z m -1.347721,0.84801 a 0.29306751,0.29306751 0 0 0 -0.319877,0.26355 0.29306751,0.29306751 0 0 0 0.263549,0.320394 c 0.415024,0.04037 0.89348,0.06253 1.404049,0.06253 0.470389,-10e-6 0.913518,-0.01815 1.30483,-0.05271 a 0.29306751,0.29306751 0 0 0 0.265617,-0.318843 0.29306751,0.29306751 0 0 0 -0.31626,-0.265617 c -0.371807,0.03284 -0.800011,0.05115 -1.254187,0.05116 -0.492969,0 -0.954771,-0.02223 -1.347721,-0.06046 z m -1.503785,0.569991 a 0.30000049,0.30000049 0 0 0 -0.349332,0.242363 l -1.1544523,6.4078773 0.00207,0.02946 c 9.05e-4,0.105036 0.050549,0.192214 0.097669,0.244429 0.04711,0.05221 0.092581,0.0816 0.138493,0.10697 0.09182,0.05074 0.189051,0.08265 0.304891,0.113689 0.231674,0.06209 0.536874,0.111422 0.9120893,0.153995 0.750422,0.08515 1.772302,0.136938 2.900081,0.136943 1.127885,1.1e-5 2.147981,-0.05179 2.898531,-0.136943 0.375277,-0.04257 0.680382,-0.09191 0.912089,-0.153995 0.115854,-0.03104 0.213056,-0.06293 0.304891,-0.113689 0.04592,-0.02537 0.09137,-0.05472 0.138493,-0.10697 0.04712,-0.05225 0.09891,-0.141432 0.09973,-0.246496 v -0.02739 L 16.42923,7.2809517 a 0.30000049,0.30000049 0 0 0 -0.347782,-0.242363 0.30000049,0.30000049 0 0 0 -0.241846,0.347782 l 1.115177,6.1934213 c -0.02638,0.0092 -0.03165,0.01552 -0.06821,0.02532 -0.179012,0.04797 -0.468001,0.09629 -0.826306,0.136943 -0.716602,0.0813 -1.720836,0.132818 -2.830318,0.132808 -1.109378,-5e-6 -2.115389,-0.05152 -2.831869,-0.132808 -0.358234,-0.04065 -0.6452403,-0.08897 -0.8242393,-0.136943 -0.03709,-0.0099 -0.04369,-0.01603 -0.07028,-0.02532 L 10.618735,7.3863707 a 0.30000049,0.30000049 0 0 0 -0.240296,-0.347782 z m -5.2095013,0.302307 a 0.30000049,0.30000049 0 0 0 -0.302307,0.223242 0.30000049,0.30000049 0 0 0 0.212907,0.366903 l 1.60352,0.429948 a 0.30000049,0.30000049 0 0 0 0.367419,-0.21084 0.30000049,0.30000049 0 0 0 -0.21084,-0.369486 l -1.603519,-0.429431 a 0.30000049,0.30000049 0 0 0 -0.06718,-0.01034 z m 16.1220143,5.17e-4 a 0.30000049,0.30000049 0 0 0 -0.06666,0.0098 l -1.60352,0.429431 a 0.30000049,0.30000049 0 0 0 -0.212907,0.369486 0.30000049,0.30000049 0 0 0 0.366903,0.21084 l 1.60352,-0.429948 a 0.30000049,0.30000049 0 0 0 0.212907,-0.366903 0.30000049,0.30000049 0 0 0 -0.30024,-0.222725 z M 4.7575907,8.7749167 a 0.30000049,0.30000049 0 0 0 -0.299207,0.29869 0.30000049,0.30000049 0 0 0 0.299207,0.300757 h 1.659847 a 0.30000049,0.30000049 0 0 0 0.300757,-0.300757 0.30000049,0.30000049 0 0 0 -0.300757,-0.29869 z m 15.2827883,0 a 0.30000049,0.30000049 0 0 0 -0.300757,0.29869 0.30000049,0.30000049 0 0 0 0.300757,0.300757 h 1.660364 A 0.30000049,0.30000049 0 0 0 22.0015,9.0736067 0.30000049,0.30000049 0 0 0 21.700743,8.7749167 Z M 6.8566877,9.7784737 a 0.30000049,0.30000049 0 0 0 -0.066146,0.01033 l -1.60352,0.4294313 a 0.30000049,0.30000049 0 0 0 -0.212907,0.367419 0.30000049,0.30000049 0 0 0 0.369487,0.21084 l 1.603519,-0.429948 a 0.30000049,0.30000049 0 0 0 0.21084,-0.3669023 0.30000049,0.30000049 0 0 0 -0.301273,-0.221175 z m 12.7444413,0 a 0.30000049,0.30000049 0 0 0 -0.300757,0.221175 0.30000049,0.30000049 0 0 0 0.212907,0.3669023 l 1.60352,0.429948 a 0.30000049,0.30000049 0 0 0 0.36742,-0.21084 0.30000049,0.30000049 0 0 0 -0.212907,-0.367419 l -1.60352,-0.4294313 a 0.30000049,0.30000049 0 0 0 -0.06666,-0.01033 z m -7.617106,0.4283973 a 0.30000001,0.30000001 0 0 0 -0.300757,0.300757 0.30000001,0.30000001 0 0 0 0.300757,0.300757 h 0.945162 v 2.308386 a 0.30000001,0.30000001 0 0 0 0.300757,0.29869 0.30000001,0.30000001 0 0 0 0.299207,-0.29869 v -2.308386 h 0.945161 a 0.30000001,0.30000001 0 0 0 0.300757,-0.300757 0.30000001,0.30000001 0 0 0 -0.300757,-0.300757 z m -3.8064863,2.542997 c -0.622529,0.112611 -1.130205,0.245336 -1.504301,0.40411 -0.187048,0.07939 -0.341707,0.163854 -0.466638,0.273368 -0.124931,0.109518 -0.230742,0.264716 -0.230477,0.453203 1.93e-4,0.192002 0.10965,0.348518 0.238229,0.458886 0.128577,0.110371 0.289518,0.195194 0.482657,0.275436 0.386285,0.160485 0.909397,0.293173 1.55236,0.406177 1.285931,0.226007 3.0416813,0.363295 4.9805753,0.363285 1.938796,-1.5e-5 3.692684,-0.137279 4.978507,-0.363285 0.642914,-0.113004 1.166629,-0.245696 1.552877,-0.406177 0.193126,-0.08024 0.354089,-0.165068 0.482658,-0.275436 0.12857,-0.110365 0.238036,-0.266894 0.238228,-0.458886 2.67e-4,-0.188262 -0.105772,-0.343747 -0.230476,-0.453203 -0.124708,-0.109452 -0.278418,-0.194038 -0.465088,-0.273368 -0.37334,-0.15866 -0.880476,-0.289983 -1.501717,-0.402559 a 0.2794365,0.2794365 0 0 0 -0.324528,0.224792 0.2794365,0.2794365 0 0 0 0.224792,0.324011 c 0.597172,0.108214 1.076757,0.237333 1.382861,0.36742 0.153053,0.06504 0.260347,0.132574 0.314193,0.179834 0.02032,0.01783 0.02541,0.02417 0.03101,0.03101 -0.006,0.0074 -0.01199,0.01571 -0.03462,0.03514 -0.05734,0.04922 -0.170385,0.119113 -0.330213,0.185518 -0.319655,0.132812 -0.816525,0.262228 -1.435571,0.371037 -1.238096,0.217619 -2.970654,0.355519 -4.882906,0.355534 -1.912349,10e-6 -3.6447053,-0.137913 -4.8829063,-0.355534 -0.6191,-0.10881 -1.115364,-0.238218 -1.435055,-0.371037 -0.159843,-0.06641 -0.274933,-0.136293 -0.332279,-0.185518 -0.022638,-0.01943 -0.028672,-0.02779 -0.034623,-0.03514 0.0056,-0.0068 0.010139,-0.01317 0.030489,-0.03101 0.05404,-0.04737 0.163328,-0.114708 0.316776,-0.179834 0.306895,-0.130253 0.78594,-0.259161 1.384412,-0.36742 a 0.2794365,0.2794365 0 0 0 0.226859,-0.326078 0.2794365,0.2794365 0 0 0 -0.326078,-0.224276 z m 12.4798593,2.084628 a 0.28055301,0.28055301 0 0 0 -0.106971,0.02274 0.28055301,0.28055301 0 0 0 -0.146761,0.36897 l 1.098124,2.578137 c -0.0081,0.260796 -0.164339,0.541521 -0.548803,0.836125 -0.394254,0.302106 -0.99713,0.592938 -1.752348,0.837675 -1.510435,0.489473 -3.629529,0.798948 -5.970695,0.798918 -2.341168,3e-5 -4.4623273,-0.309445 -5.9727623,-0.798918 -0.755218,-0.244737 -1.355509,-0.535569 -1.749764,-0.837675 -0.383437,-0.293816 -0.539842,-0.573844 -0.548804,-0.834058 l 1.097608,-2.580204 a 0.28055301,0.28055301 0 0 0 -0.148312,-0.36897 0.28055301,0.28055301 0 0 0 -0.367419,0.148312 l -1.158069,2.718697 v 0.05684 c -1.85e-4,0.500281 0.310804,0.942165 0.783415,1.304313 0.47261,0.362147 1.124746,0.668402 1.919779,0.926042 1.590066,0.515278 3.7540243,0.826336 6.1443283,0.826306 2.390302,3e-5 4.55478,-0.311028 6.144845,-0.826306 0.795033,-0.25764 1.447169,-0.563895 1.919779,-0.926042 0.472611,-0.362148 0.781534,-0.804032 0.781348,-1.304313 v -0.05684 l -1.156519,-2.718697 a 0.28055301,0.28055301 0 0 0 -0.153996,-0.150379 0.28055301,0.28055301 0 0 0 -0.108003,-0.02067 z" />
  </g>
</svg>
