<?xml version="1.0" encoding="UTF-8" standalone="no"?>
<!-- Created with Inkscape (http://www.inkscape.org/) -->

<svg
   width="100"
   height="100"
   viewBox="0 0 26.458333 26.458333"
   version="1.1"
   id="svg1"
   inkscape:version="1.3.2 (091e20e, 2023-11-25, custom)"
   sodipodi:docname="pesquisa.svg"
   xmlns:inkscape="http://www.inkscape.org/namespaces/inkscape"
   xmlns:sodipodi="http://sodipodi.sourceforge.net/DTD/sodipodi-0.dtd"
   xmlns="http://www.w3.org/2000/svg"
   xmlns:svg="http://www.w3.org/2000/svg">
  <sodipodi:namedview
     id="namedview1"
     pagecolor="#ffffff"
     bordercolor="#000000"
     borderopacity="0.25"
     inkscape:showpageshadow="2"
     inkscape:pageopacity="0.0"
     inkscape:pagecheckerboard="0"
     inkscape:deskcolor="#d1d1d1"
     inkscape:document-units="mm"
     inkscape:zoom="2.8284271"
     inkscape:cx="43.663844"
     inkscape:cy="18.561553"
     inkscape:window-width="1920"
     inkscape:window-height="991"
     inkscape:window-x="-9"
     inkscape:window-y="-9"
     inkscape:window-maximized="1"
     inkscape:current-layer="layer1" />
  <defs
     id="defs1" />
  <g
     inkscape:label="Camada 1"
     inkscape:groupmode="layer"
     id="layer1">
    <path
       id="rect29"
       style="color:#000000;fill:#000000;stroke-linecap:round;stroke-miterlimit:4.2;-inkscape-stroke:none"
       d="M 11.301636 5.6585693 C 10.273125 5.6621832 9.2430748 6.0469856 8.4578817 6.8119873 C 6.8874953 8.3419906 6.8773542 10.824748 8.4382446 12.3455 C 9.6977466 13.572613 11.59942 13.801971 13.111861 13.041064 L 18.080033 17.881079 C 18.557741 18.34651 19.328688 18.346653 19.806543 17.881079 C 20.284401 17.415502 20.284411 16.641328 19.806543 16.175757 L 14.850773 11.346594 C 15.632003 9.8729851 15.397248 8.0200851 14.137638 6.792867 C 13.357193 6.0324912 12.330147 5.6549555 11.301636 5.6585693 z M 11.302153 6.2471639 C 12.173652 6.244332 13.043269 6.5666674 13.706657 7.2129964 C 15.033433 8.5056545 15.026917 10.601327 13.68702 11.906767 C 12.347123 13.212207 10.194452 13.220095 8.8676758 11.927437 C 7.5408992 10.634779 7.5474165 8.5360069 8.8873128 7.2305664 C 9.557261 6.5778462 10.430653 6.2499958 11.302153 6.2471639 z M 2.109432 6.5313843 C 1.5236681 6.5314527 1.0348685 7.0011957 1.0350789 7.5840332 C 1.0352892 8.1665918 1.5239439 8.6366306 2.109432 8.6366821 L 3.0525269 8.6366821 L 3.0525269 11.859224 L 2.109432 11.859224 C 1.5236635 11.859276 1.0348685 12.329037 1.0350789 12.911873 C 1.0352892 13.494432 1.5239433 13.964988 2.109432 13.965039 C 2.1531479 13.965973 2.193904 13.964903 2.2267375 13.965039 L 2.2282878 13.965039 L 5.0353516 13.965039 C 3.9916714 14.626741 3.2990234 15.772514 3.2990234 17.082161 C 3.2990234 19.140322 5.0058318 20.79873 7.1055094 20.79873 L 24.230562 20.79873 C 24.263382 20.798593 24.304151 20.797663 24.347868 20.796663 C 24.933356 20.796611 25.423561 20.32864 25.423771 19.746082 C 25.423983 19.163244 24.933637 18.691418 24.347868 18.691366 L 23.406323 18.691366 L 23.406323 15.47089 L 24.347868 15.47089 C 24.933356 15.47084 25.423561 15.000283 25.423771 14.417725 C 25.423983 13.834886 24.933632 13.365145 24.347868 13.365076 L 21.422465 13.365076 C 22.466685 12.703364 23.160343 11.557565 23.160343 10.247953 C 23.160343 8.1897917 21.451524 6.5313843 19.35179 6.5313843 L 15.474508 6.5313843 A 0.30000001 0.30000001 0 0 0 15.173751 6.8321411 A 0.30000001 0.30000001 0 0 0 15.474508 7.1308309 L 19.35179 7.1308309 C 21.13775 7.1308309 22.55883 8.520347 22.55883 10.247953 C 22.55883 11.97556 21.137806 13.365076 19.35179 13.365076 L 18.480526 13.365076 A 0.30000001 0.30000001 0 0 0 18.179769 13.664282 A 0.30000001 0.30000001 0 0 0 18.480526 13.965039 L 19.35179 13.965039 L 24.347868 13.965039 C 24.618903 13.96507 24.824415 14.169076 24.824325 14.417725 C 24.824235 14.66625 24.618752 14.869353 24.347868 14.869377 L 19.855636 14.869377 A 0.30000001 0.30000001 0 0 0 19.556429 15.170133 A 0.30000001 0.30000001 0 0 0 19.855636 15.47089 L 22.806877 15.47089 L 22.806877 18.691366 L 7.1055094 18.691366 C 6.140362 18.691366 5.4451457 18.010718 5.4451457 17.082161 C 5.4451457 16.153746 6.1419497 15.47089 7.1055094 15.47089 L 13.828097 15.47089 A 0.30000001 0.30000001 0 0 0 14.128853 15.169617 A 0.30000001 0.30000001 0 0 0 13.828097 14.86886 L 7.1055094 14.86886 C 5.8444217 14.86886 4.8456991 15.841006 4.8456991 17.082161 C 4.8456991 18.323076 5.8438582 19.292879 7.1055094 19.292879 L 24.347868 19.292879 C 24.618898 19.292903 24.824415 19.495368 24.824325 19.744014 C 24.824235 19.992541 24.618753 20.197193 24.347868 20.197217 L 24.343734 20.197217 L 24.3396 20.197217 C 24.31077 20.19797 24.272937 20.197063 24.230562 20.197217 L 7.1055094 20.197217 C 5.3194951 20.197217 3.8984701 18.809768 3.8984701 17.082161 C 3.8984701 15.354541 5.3195492 13.965039 7.1055094 13.965039 L 8.9705119 13.965039 A 0.30000001 0.30000001 0 0 0 9.0480265 13.954187 A 0.30000001 0.30000001 0 0 0 9.2697184 13.664282 A 0.30000001 0.30000001 0 0 0 8.9705119 13.365076 L 7.1055094 13.365076 L 2.2303548 13.365076 C 2.1870879 13.364897 2.1465307 13.365843 2.1171834 13.365076 L 2.1130493 13.365076 L 2.109432 13.365076 C 1.8385556 13.365053 1.6346153 13.1604 1.6345256 12.911873 C 1.6344359 12.663227 1.8384027 12.459212 2.109432 12.459188 L 3.3517334 12.459188 L 7.027478 12.459188 A 0.30000001 0.30000001 0 0 0 7.3261678 12.158431 A 0.30000001 0.30000001 0 0 0 7.027478 11.859224 L 3.6524902 11.859224 L 3.6524902 8.6366821 L 6.5722087 8.6366821 A 0.30000001 0.30000001 0 0 0 6.8708984 8.3359253 A 0.30000001 0.30000001 0 0 0 6.5722087 8.0372355 L 3.3517334 8.0372355 L 2.109432 8.0372355 C 1.8385476 8.0372117 1.6346153 7.8325596 1.6345256 7.5840332 C 1.6344359 7.3353854 1.8383982 7.1308625 2.109432 7.1308309 L 7.027478 7.1308309 A 0.30000001 0.30000001 0 0 0 7.3261678 6.8321411 A 0.30000001 0.30000001 0 0 0 7.027478 6.5313843 L 2.109432 6.5313843 z M 16.03313 8.0372355 A 0.30000001 0.30000001 0 0 0 15.732373 8.3359253 A 0.30000001 0.30000001 0 0 0 16.03313 8.6366821 L 19.35179 8.6366821 C 20.31535 8.6366821 21.011637 9.319539 21.011637 10.247953 C 21.011637 11.176512 20.316952 11.859224 19.35179 11.859224 L 16.689421 11.859224 A 0.30000001 0.30000001 0 0 0 16.390731 12.158431 A 0.30000001 0.30000001 0 0 0 16.689421 12.459188 L 19.35179 12.459188 C 20.613453 12.459188 21.613151 11.488866 21.613151 10.247953 C 21.613151 9.0067976 20.612879 8.0372355 19.35179 8.0372355 L 16.03313 8.0372355 z M 14.522111 11.864909 L 19.388481 16.605705 C 19.635668 16.846532 19.63568 17.210284 19.388481 17.451131 C 19.141303 17.691957 18.74542 17.6921 18.498096 17.451131 L 13.643095 12.720671 C 13.808624 12.602546 13.966934 12.471018 14.116451 12.325346 C 14.265702 12.179933 14.401034 12.02587 14.522111 11.864909 z " />
  </g>
</svg>
