<?xml version="1.0" encoding="UTF-8" standalone="no"?>
<!-- Created with Inkscape (http://www.inkscape.org/) -->

<svg
   width="100"
   height="100"
   viewBox="0 0 26.458333 26.458333"
   version="1.1"
   id="svg1"
   inkscape:version="1.3.2 (091e20e, 2023-11-25, custom)"
   sodipodi:docname="adolescente.svg"
   xml:space="preserve"
   xmlns:inkscape="http://www.inkscape.org/namespaces/inkscape"
   xmlns:sodipodi="http://sodipodi.sourceforge.net/DTD/sodipodi-0.dtd"
   xmlns="http://www.w3.org/2000/svg"
   xmlns:svg="http://www.w3.org/2000/svg"><sodipodi:namedview
     id="namedview1"
     pagecolor="#ffffff"
     bordercolor="#000000"
     borderopacity="0.25"
     inkscape:showpageshadow="2"
     inkscape:pageopacity="0.0"
     inkscape:pagecheckerboard="0"
     inkscape:deskcolor="#d1d1d1"
     inkscape:document-units="mm"
     inkscape:zoom="2.8284271"
     inkscape:cx="28.814601"
     inkscape:cy="46.138717"
     inkscape:window-width="1920"
     inkscape:window-height="991"
     inkscape:window-x="-9"
     inkscape:window-y="-9"
     inkscape:window-maximized="1"
     inkscape:current-layer="layer1"
     showguides="true"><sodipodi:guide
       position="5.0169517,100.70775"
       orientation="0,-1"
       id="guide30"
       inkscape:locked="false" /></sodipodi:namedview><defs
     id="defs1" /><g
     inkscape:label="Camada 1"
     inkscape:groupmode="layer"
     id="layer1"><path
       id="path39"
       style="fill:none;stroke:#000000;stroke-width:0.6"
       d="m 13.229588,2.3541197 c -0.582019,-7e-5 -1.151126,0.2349331 -1.562695,0.6464721 -0.412139,0.4121392 -0.646552,0.9822368 -0.646472,1.5642456 4e-5,0.581969 0.234903,1.1511962 0.646472,1.5626954 0.411429,0.411339 0.980496,0.6465421 1.562695,0.6464721 0.581849,-5e-5 1.15061,-0.2349031 1.562179,-0.6464721 0.411579,-0.4115792 0.646422,-0.9808464 0.646472,-1.5626954 7e-5,-0.5810388 -0.231916,-1.1516664 -0.644405,-1.5642456 -0.412059,-0.412119 -0.982297,-0.6464221 -1.564246,-0.6464721 z m -5.17e-4,5.5655517 c -2.401735,7e-5 -4.3486314,1.0113494 -4.3485714,2.2587766 6.7e-4,0.005 5.506e-4,0.01 0.00155,0.01447 -9.4e-4,0.0131 -0.00155,0.02639 -0.00155,0.03979 v 0.463537 0.09715 5.403288 c 0,0.299559 0.2409761,0.540535 0.5405355,0.540535 h 0.4557862 v 6.958749 c -1.1e-4,0.22551 0.1827347,0.408354 0.4082437,0.408244 h 1.246436 c 0.225509,1.1e-4 0.408353,-0.182734 0.408243,-0.408244 v -4.659664 c 0,-0.442629 0.363784,-0.808737 0.806153,-0.808737 h 0.476973 0.01395 0.476973 c 0.442369,0 0.806153,0.366108 0.806153,0.808737 v 4.659664 c -1.1e-4,0.22551 0.182734,0.408354 0.408244,0.408244 h 1.246435 c 0.22551,1.13e-4 0.408354,-0.182731 0.408244,-0.408241 v -6.958749 h 0.454753 c 0.299559,0 0.540535,-0.240976 0.540535,-0.540535 v -5.403288 -0.09715 -0.463537 c 0,-0.0127 -0.0011,-0.02532 -0.0021,-0.03772 7.4e-4,-0.005 0.0011,-0.01104 0.0021,-0.01654 6e-5,-1.2475372 -1.947153,-2.2588567 -4.349089,-2.2587766 z" /></g></svg>
