<?xml version="1.0" encoding="UTF-8" standalone="no"?>
<!-- Created with Inkscape (http://www.inkscape.org/) -->

<svg
   width="100"
   height="100"
   viewBox="0 0 26.458333 26.458333"
   version="1.1"
   id="svg1"
   inkscape:version="1.3.2 (091e20e, 2023-11-25, custom)"
   sodipodi:docname="avaliacao.svg"
   xml:space="preserve"
   xmlns:inkscape="http://www.inkscape.org/namespaces/inkscape"
   xmlns:sodipodi="http://sodipodi.sourceforge.net/DTD/sodipodi-0.dtd"
   xmlns="http://www.w3.org/2000/svg"
   xmlns:svg="http://www.w3.org/2000/svg"><sodipodi:namedview
     id="namedview1"
     pagecolor="#ffffff"
     bordercolor="#000000"
     borderopacity="0.25"
     inkscape:showpageshadow="2"
     inkscape:pageopacity="0.0"
     inkscape:pagecheckerboard="0"
     inkscape:deskcolor="#d1d1d1"
     inkscape:document-units="mm"
     inkscape:zoom="4"
     inkscape:cx="65.875"
     inkscape:cy="71.375"
     inkscape:window-width="1920"
     inkscape:window-height="991"
     inkscape:window-x="-9"
     inkscape:window-y="-9"
     inkscape:window-maximized="1"
     inkscape:current-layer="layer1"
     showguides="true"><sodipodi:guide
       position="5.0169517,100.70775"
       orientation="0,-1"
       id="guide30"
       inkscape:locked="false" /></sodipodi:namedview><defs
     id="defs1" /><g
     inkscape:label="Camada 1"
     inkscape:groupmode="layer"
     id="layer1"><path
       id="rect36"
       style="color:#000000;fill:#000000;stroke-linecap:round;stroke-linejoin:round;stroke-miterlimit:4.2;-inkscape-stroke:none"
       d="m 12.177097,-4.662116 c -0.430067,0.2482992 -0.579876,0.8074007 -0.331578,1.2374658 l 0.800726,1.3868987 -1.195445,0.7850673 -0.470355,0.27155966 c -0.287738,0.16612573 -0.441011,0.47771943 -0.427408,0.79036475 -0.0038,0.1587615 0.02821,0.32274833 0.112915,0.46945907 0.237623,0.4115747 0.784099,0.54174685 1.181412,0.28099836 l 0.483992,-0.31821916 4.593906,-2.65229288 0.519373,-0.2610737 c 0.303771,-0.1529155 0.472514,-0.4717342 0.453678,-0.7924046 0.002,-0.1504864 -0.02839,-0.30652 -0.109223,-0.4465287 -0.237752,-0.4117974 -0.772726,-0.5551425 -1.184523,-0.3173918 l -0.531219,0.3066997 -1.229139,0.6171541 -0.80176,-1.3886888 c -0.248298,-0.4300646 -0.806057,-0.5806519 -1.236123,-0.3323532 z m 0.299723,0.519136 0.629229,-0.3632854 c 0.151185,-0.087287 0.329978,-0.038243 0.417264,0.1129405 l 0.943353,1.6339358 c 0.07926,0.1385558 0.253127,0.1907963 0.395626,0.1188696 l 1.48885,-0.7491973 c 0.0052,-0.00278 0.01023,-0.00571 0.01522,-0.00879 l 0.537933,-0.3105754 c 0.13292,-0.076742 0.288922,-0.034939 0.365663,0.097979 0.02707,0.046889 0.03738,0.096682 0.0352,0.1467545 -8.17e-4,0.011413 -9.8e-4,0.022863 -4.89e-4,0.034294 0.0067,0.090292 -0.03224,0.1721381 -0.131372,0.2220414 L 16.64926,-2.94365 c -0.0052,0.00278 -0.01023,0.00571 -0.01522,0.00879 l -4.609122,2.66107792 c -0.0052,0.002779 -0.01023,0.005709 -0.01522,0.008785 L 11.51874,0.05665057 c -0.128538,0.08436153 -0.256782,0.05546715 -0.333652,-0.07767459 -0.02858,-0.0494985 -0.04212,-0.10530122 -0.03937,-0.1622474 0.0011,-0.0107992 0.0016,-0.0216499 0.0015,-0.0325041 -0.0056,-0.0975769 0.03918,-0.19208384 0.132931,-0.24621299 l 0.477068,-0.27543538 c 0.0052,-0.002779 0.01023,-0.005709 0.01522,-0.008785 L 13.211331,-1.691514 c 0.133038,-0.087117 0.174995,-0.2629028 0.09564,-0.4007138 l -0.94232,-1.6321457 c -0.08729,-0.1511834 -0.03902,-0.3313191 0.112165,-0.4186065 z m 2.118083,-0.7807147 c -0.14294,0.08336 -0.191393,0.2667158 -0.108295,0.4098079 0.08295,0.1422442 0.265056,0.1910385 0.408018,0.109328 0.06479,-0.037405 0.136249,-0.018258 0.173655,0.046531 l 0.131774,0.2282408 c 0.08295,0.1422442 0.265056,0.1910385 0.408018,0.109328 0.143511,-0.082372 0.193227,-0.2653897 0.111118,-0.4090513 l -0.131774,-0.2282408 c -0.198464,-0.3437493 -0.648766,-0.4644067 -0.992514,-0.2659436 z m -3.21582,1.8590411 c -0.04767,0.021733 -0.08883,0.055573 -0.119361,0.098152 0,0 -0.08624,0.1141254 -0.154823,0.2672062 -0.06858,0.1530809 -0.167534,0.3816171 -0.0183,0.6400937 l 0.131775,0.2282408 c 0.08295,0.1422442 0.265056,0.1910385 0.408018,0.109328 0.143511,-0.082372 0.193227,-0.2653897 0.111118,-0.4090513 L 11.605735,-2.358925 c 0.0313,0.054207 0.0078,-0.00826 0.04662,-0.094944 0.03884,-0.086689 0.09197,-0.1611015 0.09197,-0.1611015 0.09773,-0.134065 0.06809,-0.3220003 -0.06616,-0.4194791 -0.06479,-0.047098 -0.145721,-0.066332 -0.224771,-0.053418 -0.02567,0.00448 -0.05066,0.012281 -0.07431,0.023214 z M 7.3228812,-0.41430631 C 6.7550159,-0.08644914 6.5578318,0.64804044 6.8856889,1.2159056 L 16.245066,17.426822 c 0.327857,0.567865 1.062794,0.764791 1.630659,0.436934 l 11.571363,-6.680729 c 0.567865,-0.327857 0.764343,-1.062536 0.436486,-1.6304012 L 25.955907,2.7497066 C 25.872547,2.6067673 25.689191,2.5583143 25.546099,2.6414121 25.402588,2.7237846 25.352872,2.9068018 25.434981,3.0504634 l 3.927667,6.8029193 c 0.166846,0.2889853 0.07267,0.6418723 -0.216317,0.8087183 L 17.574969,17.34283 c -0.288986,0.166846 -0.643474,0.073 -0.81032,-0.21599 L 7.4052724,0.91592394 C 7.2384263,0.62693796 7.3336185,0.27167582 7.6226045,0.10482969 L 10.805893,-1.7330426 c 0.142939,-0.08336 0.191392,-0.2667161 0.108294,-0.409808 -0.08295,-0.142244 -0.265056,-0.1910382 -0.408018,-0.109328 z M 15.771372,-5.2920448 c -0.143511,0.082372 -0.193227,0.2653897 -0.111118,0.4090514 0.08277,0.1442096 0.267051,0.1935863 0.410841,0.1100846 l 3.122872,-1.8029907 c 0.288985,-0.1668458 0.642458,-0.07062 0.809304,0.2183656 l 2.521551,4.3674553 c 0.08277,0.1442103 0.267052,0.193587 0.410842,0.1100847 0.14421,-0.082775 0.193587,-0.2670512 0.110085,-0.4108415 L 20.524197,-6.6582907 C 20.19634,-7.2261562 19.462109,-7.4228926 18.894244,-7.0950355 Z M 8.9718656,0.58250053 C 8.6001595,0.79710517 8.4702529,1.2805113 8.6848576,1.6522174 L 16.832422,15.764213 c 0.214605,0.371707 0.699233,0.502697 1.07094,0.288093 l 9.959355,-5.750037 c 0.371706,-0.214604 0.501922,-0.7005757 0.287318,-1.0722821 L 25.832605,5.2160811 C 25.750459,5.0745163 25.569334,5.0259839 25.427411,5.1075097 25.284259,5.1889219 25.23457,5.3711976 25.316602,5.5139957 l 2.317429,4.0139059 c 0.05514,0.095503 0.02627,0.2032286 -0.06923,0.2583642 l -9.959356,5.7500362 c -0.0955,0.05514 -0.203675,0.02653 -0.258812,-0.06897 L 9.1990707,1.3553363 C 9.1439314,1.2598321 9.1732423,1.1518532 9.2687467,1.0967137 L 10.153516,0.58589215 C 10.295255,0.5036449 10.343702,0.32220578 10.261829,0.18025045 10.179683,0.03868533 9.9985574,-0.00984713 9.8566345,0.071679 Z M 17.990511,-4.6244168 c -0.141565,0.082146 -0.190097,0.2632715 -0.108571,0.4051942 0.082,0.1418815 0.263354,0.1906445 0.405452,0.109019 l 0.94071,-0.5431193 c 0.0955,-0.055139 0.203226,-0.026275 0.258365,0.069229 l 3.065445,5.30950811 c 0.0825,0.14275973 0.265435,0.19109697 0.407691,0.10772707 0.141739,-0.0822473 0.190186,-0.26368637 0.108313,-0.40564171 L 20.00247,-4.8820091 c -0.214605,-0.3717065 -0.699543,-0.5001313 -1.071249,-0.285527 z m -6.67297,7.215091 c -0.14421,0.082775 -0.193587,0.2670511 -0.110085,0.4108414 0.08336,0.1429393 0.266716,0.1913924 0.409808,0.1082946 l 8.181315,-4.7234843 c 0.143511,-0.082373 0.193227,-0.2653897 0.111118,-0.4090514 -0.08278,-0.1442096 -0.267051,-0.1935863 -0.410841,-0.1100846 z M 23.536979,-4.035189 c -0.08279,0.057146 -0.138712,0.1530465 -0.138712,0.2579045 l 7.7e-5,9.1582306 c 0,0.1677728 0.142696,0.3124382 0.310469,0.3124382 l 0.781603,-1.471e-4 c 0.167772,0 0.312558,-0.1445552 0.312558,-0.3123281 l -7.7e-5,-9.1582306 c 0,-0.1677728 -0.145003,-0.3122998 -0.312776,-0.3122998 l -0.781155,-1.112e-4 c -0.06292,0 -0.122313,0.020256 -0.171987,0.054544 z m 0.460787,0.5448911 0.205369,1.752e-4 8.2e-5,8.5835977 -0.205111,2.723e-4 z M 11.928873,3.6495326 c -0.14421,0.082775 -0.193587,0.2670512 -0.110085,0.4108415 0.08336,0.1429393 0.266716,0.1913923 0.409808,0.1082945 l 8.181315,-4.72348432 c 0.143511,-0.0823725 0.193227,-0.2653897 0.111118,-0.40905136 -0.08277,-0.14420962 -0.267051,-0.19358632 -0.410841,-0.11008462 z m 0.634845,1.0995837 c -0.143511,0.082372 -0.193227,0.2653897 -0.111118,0.4090514 0.08277,0.1442096 0.267051,0.1935863 0.410841,0.1100846 l 8.181315,-4.72348428 c 0.14421,-0.0827749 0.193587,-0.26705118 0.110085,-0.41084148 -0.08336,-0.14293931 -0.266716,-0.1913923 -0.409808,-0.10829451 z m 0.676703,1.1720838 c -0.143511,0.082372 -0.193227,0.2653897 -0.111118,0.4090513 0.08277,0.1442097 0.267051,0.1935864 0.410841,0.1100847 L 21.721459,1.7168518 C 21.865669,1.6340769 21.915046,1.4498006 21.831544,1.3060103 21.748184,1.163071 21.564828,1.114618 21.421736,1.1977158 Z m 10.373112,0.1249517 c -0.117753,0.076039 -0.167156,0.223483 -0.118986,0.3551164 l 0.308986,0.843171 c 0.09508,0.2660697 0.471668,0.2652039 0.565525,-0.0013 L 24.66069,6.4201763 C 24.716095,6.2646859 24.635477,6.093647 24.480282,6.037421 24.324586,5.9817485 24.153199,6.0625518 24.09708,6.2180871 l -0.01391,0.042046 -0.02485,-0.066807 C 23.944382,5.9820181 23.807992,6.0015169 23.613533,6.0461518 Z"
       transform="rotate(30)"
       sodipodi:nodetypes="ssccscscccccssccssscssccccssccccccccsccsccccsscccscccsccssscccccccccscsssscccscscsscccscscsscccsscsccccccccsccccscccscccsscccssccscccccsccccccccsccccccccccccccccccccccccccccccccccccc" /><path
       d="m 8.5059416,18.055817 c -0.165471,-4.19e-4 -0.300035,0.133221 -0.300757,0.29869 -4.24e-4,0.166274 0.13448,0.301176 0.300756,0.300757 l 7.6696264,0 c 0.166277,4.2e-4 0.301177,-0.13448 0.300756,-0.300757 -7.22e-4,-0.165469 -0.135285,-0.299109 -0.300757,-0.29869 z"
       style="color:#000000;fill:#000000;stroke-linecap:round;stroke-linejoin:round;stroke-miterlimit:4.2;-inkscape-stroke:none"
       id="path1"
       sodipodi:nodetypes="ccccccc" /></g></svg>
