<?xml version="1.0" encoding="UTF-8" standalone="no"?>
<!-- Created with Inkscape (http://www.inkscape.org/) -->

<svg
   width="100"
   height="100"
   viewBox="0 0 26.458333 26.458333"
   version="1.1"
   id="svg1"
   inkscape:version="1.3.2 (091e20e, 2023-11-25, custom)"
   sodipodi:docname="doctoralia.svg"
   xml:space="preserve"
   xmlns:inkscape="http://www.inkscape.org/namespaces/inkscape"
   xmlns:sodipodi="http://sodipodi.sourceforge.net/DTD/sodipodi-0.dtd"
   xmlns="http://www.w3.org/2000/svg"
   xmlns:svg="http://www.w3.org/2000/svg"><sodipodi:namedview
     id="namedview1"
     pagecolor="#ffffff"
     bordercolor="#000000"
     borderopacity="0.25"
     inkscape:showpageshadow="2"
     inkscape:pageopacity="0.0"
     inkscape:pagecheckerboard="0"
     inkscape:deskcolor="#d1d1d1"
     inkscape:document-units="mm"
     inkscape:zoom="2"
     inkscape:cx="123.75"
     inkscape:cy="71.750001"
     inkscape:window-width="1920"
     inkscape:window-height="991"
     inkscape:window-x="-9"
     inkscape:window-y="-9"
     inkscape:window-maximized="1"
     inkscape:current-layer="layer1" /><defs
     id="defs1"><clipPath
       clipPathUnits="userSpaceOnUse"
       id="clipPath648"><path
         d="M 0,841.89 H 595.276 V 0 H 0 Z"
         transform="translate(-169.836,-386.64611)"
         id="path648" /></clipPath><clipPath
       clipPathUnits="userSpaceOnUse"
       id="clipPath650"><path
         d="M 0,841.89 H 595.276 V 0 H 0 Z"
         transform="translate(-181.4974,-386.64611)"
         id="path650" /></clipPath><clipPath
       clipPathUnits="userSpaceOnUse"
       id="clipPath652"><path
         d="M 0,841.89 H 595.276 V 0 H 0 Z"
         transform="translate(-193.91061,-386.64611)"
         id="path652" /></clipPath><clipPath
       clipPathUnits="userSpaceOnUse"
       id="clipPath654"><path
         d="M 0,841.89 H 595.276 V 0 H 0 Z"
         id="path654" /></clipPath><clipPath
       clipPathUnits="userSpaceOnUse"
       id="clipPath656"><path
         d="M 0,841.89 H 595.276 V 0 H 0 Z"
         transform="translate(-222.51591,-386.64611)"
         id="path656" /></clipPath><clipPath
       clipPathUnits="userSpaceOnUse"
       id="clipPath658"><path
         d="M 0,841.89 H 595.276 V 0 H 0 Z"
         transform="translate(-169.8084,-365.70171)"
         id="path658" /></clipPath><clipPath
       clipPathUnits="userSpaceOnUse"
       id="clipPath660"><path
         d="M 0,841.89 H 595.276 V 0 H 0 Z"
         transform="translate(-202.72051,-368.01791)"
         id="path660" /></clipPath><clipPath
       clipPathUnits="userSpaceOnUse"
       id="clipPath662"><path
         d="M 0,841.89 H 595.276 V 0 H 0 Z"
         transform="translate(-238.53781,-364.92971)"
         id="path662" /></clipPath><clipPath
       clipPathUnits="userSpaceOnUse"
       id="clipPath664"><path
         d="M 0,841.89 H 595.276 V 0 H 0 Z"
         transform="translate(-250.19931,-364.92971)"
         id="path664" /></clipPath><clipPath
       clipPathUnits="userSpaceOnUse"
       id="clipPath666"><path
         d="M 0,841.89 H 595.276 V 0 H 0 Z"
         transform="translate(-256.7206,-360.92771)"
         id="path666" /></clipPath><clipPath
       clipPathUnits="userSpaceOnUse"
       id="clipPath668"><path
         d="M 0,841.89 H 595.276 V 0 H 0 Z"
         transform="translate(-278.78421,-364.92971)"
         id="path668" /></clipPath><clipPath
       clipPathUnits="userSpaceOnUse"
       id="clipPath670"><path
         d="M 0,841.89 H 595.276 V 0 H 0 Z"
         transform="translate(-197.84481,-368.01791)"
         id="path670" /></clipPath><clipPath
       clipPathUnits="userSpaceOnUse"
       id="clipPath672"><path
         d="M 0,841.89 H 595.276 V 0 H 0 Z"
         transform="translate(-223.6792,-368.01791)"
         id="path672" /></clipPath><clipPath
       clipPathUnits="userSpaceOnUse"
       id="clipPath674"><path
         d="M 0,841.89 H 595.276 V 0 H 0 Z"
         transform="translate(-161.67621,-386.64611)"
         id="path674" /></clipPath><clipPath
       clipPathUnits="userSpaceOnUse"
       id="clipPath676"><path
         d="M 0,841.89 H 595.276 V 0 H 0 Z"
         transform="translate(-219.80361,-384.48231)"
         id="path676" /></clipPath><clipPath
       clipPathUnits="userSpaceOnUse"
       id="clipPath678"><path
         d="M 0,841.89 H 595.276 V 0 H 0 Z"
         transform="translate(-185.5536,-359.99321)"
         id="path678" /></clipPath></defs><g
     inkscape:label="Camada 1"
     inkscape:groupmode="layer"
     id="layer1"><path
       d="m 14.674524,20.896485 c 0.636357,-1.561118 2.428996,-3.748007 4.256038,-4.875189 l 4.048327,6.695615 -4.146232,3.012436 z M 8.69729,25.721407 2.9899395,22.051453 C 7.3094806,13.97729 15.382319,8.2262817 24.869429,7.1546631 l 1.588904,4.8950399 C 18.639502,13.590975 12.111906,18.753253 8.6959649,25.721407 Z M 9.9408922,9.1020955 10.663238,0.52916663 h 5.125237 L 16.439382,8.2818445 C 13.49839,9.2899599 11.769254,10.095655 9.7874245,11.314121 A 21.064533,21.064533 0 0 0 5.8052454,14.465469 L 0,12.015307 1.5822841,7.133497 9.9422123,9.1020955 Z"
       id="path1"
       style="stroke-width:1.32298" /></g></svg>
