<?xml version="1.0" encoding="UTF-8" standalone="no"?>
<!-- Created with Inkscape (http://www.inkscape.org/) -->

<svg
   width="100"
   height="100"
   viewBox="0 0 26.458333 26.458333"
   version="1.1"
   id="svg1"
   inkscape:version="1.3.2 (091e20e, 2023-11-25, custom)"
   sodipodi:docname="gestao.svg"
   xmlns:inkscape="http://www.inkscape.org/namespaces/inkscape"
   xmlns:sodipodi="http://sodipodi.sourceforge.net/DTD/sodipodi-0.dtd"
   xmlns="http://www.w3.org/2000/svg"
   xmlns:svg="http://www.w3.org/2000/svg">
  <sodipodi:namedview
     id="namedview1"
     pagecolor="#ffffff"
     bordercolor="#000000"
     borderopacity="0.25"
     inkscape:showpageshadow="2"
     inkscape:pageopacity="0.0"
     inkscape:pagecheckerboard="0"
     inkscape:deskcolor="#d1d1d1"
     inkscape:document-units="mm"
     inkscape:zoom="2.8284271"
     inkscape:cx="29.521708"
     inkscape:cy="53.563338"
     inkscape:window-width="1920"
     inkscape:window-height="991"
     inkscape:window-x="-9"
     inkscape:window-y="-9"
     inkscape:window-maximized="1"
     inkscape:current-layer="layer1" />
  <defs
     id="defs1" />
  <g
     inkscape:label="Camada 1"
     inkscape:groupmode="layer"
     id="layer1">
    <path
       id="path45"
       style="color:#000000;fill:#000000;stroke-width:0.938392;stroke-miterlimit:4.2;-inkscape-stroke:none"
       d="m 7.9535237,1.8789594 c -1.0150866,0 -1.8417535,0.8266763 -1.8417535,1.8417441 v 6.6016615 a 0.30000001,0.30000001 0 0 0 0.2986901,0.29869 0.30000001,0.30000001 0 0 0 0.3007546,-0.29869 V 3.7207035 c 0,-0.6930868 0.5492032,-1.2422994 1.2423088,-1.2422994 h 7.4357123 v 3.6292303 c 0,1.0150772 0.824603,1.8417534 1.839689,1.8417534 h 3.62923 V 20.275249 c 0,0.693086 -0.549212,1.242299 -1.242299,1.242299 h -6.19135 a 0.30000001,0.30000001 0 0 0 -0.300763,0.29869 0.30000001,0.30000001 0 0 0 0.300763,0.300755 h 6.19135 c 1.015068,0 1.841744,-0.826677 1.841744,-1.841744 V 7.6486332 A 0.30000001,0.30000001 0 0 0 21.36976,7.4372699 0.30000001,0.30000001 0 0 0 21.158913,7.3494179 h -3.929985 c -0.693105,0 -1.240235,-0.5486777 -1.240235,-1.2417832 V 2.179714 a 0.30000001,0.30000001 0 0 0 -0.0088,-0.067696 0.30000001,0.30000001 0 0 0 -0.0036,-0.016535 0.30000001,0.30000001 0 0 0 -0.02532,-0.061502 0.30000001,0.30000001 0 0 0 -0.0062,-0.00982 0.30000001,0.30000001 0 0 0 -0.04393,-0.057364 0.30000001,0.30000001 0 0 0 -0.05374,-0.041336 0.30000001,0.30000001 0 0 0 -0.01499,-0.0093 0.30000001,0.30000001 0 0 0 -0.05994,-0.024811 0.30000001,0.30000001 0 0 0 -0.01654,-0.00361 0.30000001,0.30000001 0 0 0 -0.0677,-0.00878 z m 9.0252823,0.5684402 a 0.30000001,0.30000001 0 0 0 -0.210838,0.09353 0.30000001,0.30000001 0 0 0 0.01395,0.4237496 l 3.693313,3.4943553 a 0.30000001,0.30000001 0 0 0 0.42375,-0.01188 0.30000001,0.30000001 0 0 0 -0.01189,-0.4237496 L 17.193782,2.5290491 a 0.30000001,0.30000001 0 0 0 -0.214976,-0.08165 z M 8.4010333,4.6131516 A 0.30000001,0.30000001 0 0 0 8.1018271,4.9139155 0.30000001,0.30000001 0 0 0 8.4010333,5.2131218 H 13.574884 A 0.30000001,0.30000001 0 0 0 13.875638,4.9139155 0.30000001,0.30000001 0 0 0 13.574884,4.6131516 Z m 0,2.0432918 A 0.30000001,0.30000001 0 0 0 8.1018271,6.957198 0.30000001,0.30000001 0 0 0 8.4010333,7.2558881 H 13.574884 A 0.30000001,0.30000001 0 0 0 13.875638,6.957198 0.30000001,0.30000001 0 0 0 13.574884,6.6564434 Z m 0,2.0427664 A 0.30000001,0.30000001 0 0 0 8.1018271,8.9999643 0.30000001,0.30000001 0 0 0 8.4010333,9.2986545 H 13.574884 A 0.30000001,0.30000001 0 0 0 13.875638,8.9999643 0.30000001,0.30000001 0 0 0 13.574884,8.6992098 Z M 7.2378029,11.63495 c -0.3053433,0 -0.5933358,0.03068 -0.8650659,0.06615 -0.3665452,0.04795 -0.6558045,0.345347 -0.6929836,0.713131 l -0.105935,1.05007 c -6.57e-5,6.85e-4 6.57e-5,0.0011 0,0.0021 -5.443e-4,9.39e-4 -0.00113,0.0017 -0.00206,0.0036 -2.252e-4,5.82e-4 2.252e-4,6.19e-4 0,0.0016 -9.384e-4,9.38e-4 -0.00268,0.0023 -0.00362,0.0041 -9.008e-4,9.38e-4 -0.00113,0.0027 -0.00206,0.0036 -9.384e-4,8.54e-4 -0.00267,0.0011 -0.00361,0.0021 -0.00188,9.39e-4 -0.00226,0.0027 -0.00414,0.0036 -4.035e-4,3e-4 -0.00155,-3e-4 -0.00155,0 v -0.0021 c -0.1297796,0.04795 -0.2617832,0.105175 -0.3942935,0.166911 -0.00469,6.38e-4 -0.00851,0.0011 -0.012922,0.0021 -0.00188,3.38e-4 -0.00328,0.0015 -0.00516,0.0015 -5.349e-4,-2.35e-4 -0.00114,2.25e-4 -0.00207,0 -0.00188,-9.2e-4 -0.0038,-0.0027 -0.00568,-0.0036 -0.00188,-8.35e-4 -0.00381,-0.0011 -0.00569,-0.0021 -5.63e-4,-2.44e-4 -0.00113,2.34e-4 -0.00206,0 L 4.309814,12.979055 C 4.0238672,12.746306 3.6108435,12.73985 3.3181403,12.964065 3.1015876,13.130339 2.874769,13.314414 2.6587512,13.530441 2.4418513,13.747322 2.2590338,13.973606 2.0939331,14.188798 1.869742,14.481501 1.875682,14.893999 2.1083941,15.179946 l 0.6015185,0.738974 v 0.0015 l 0.067696,0.08062 v 0.0021 c 9.102e-4,9.39e-4 0.00113,0.0027 0.00206,0.0036 3.285e-4,7.79e-4 0.00156,0.0011 0.00156,0.0021 9.384e-4,0.0019 0.00319,0.0038 0.00413,0.0057 7.51e-5,6.56e-4 -8.45e-5,6.09e-4 0,0.0015 -4.317e-4,0.0028 -0.00113,0.0049 -0.00206,0.0078 -3.284e-4,0.0019 3.097e-4,0.0038 0,0.0057 -3.753e-4,7.78e-4 -0.00206,6.1e-4 -0.00206,0.0015 -0.060339,0.126326 -0.1179653,0.259625 -0.1684695,0.396358 -7.32e-4,0.0019 -0.00113,0.0033 -0.00206,0.0052 -2.064e-4,5.82e-4 2.065e-4,0.0011 0,0.0021 -5.442e-4,7.51e-4 -6.193e-4,0.0011 -0.00156,0.0021 -2.065e-4,5.63e-4 2.064e-4,6.2e-4 0,0.0016 -5.537e-4,2.16e-4 -0.00113,-2.16e-4 -0.00206,0 -5.63e-4,2.25e-4 -6.099e-4,-2.16e-4 -0.00155,0 -7.414e-4,5.73e-4 -0.00113,0.0011 -0.00206,0.0021 -0.00188,7.5e-4 -0.00381,0.0011 -0.00569,0.0021 -9.384e-4,5.63e-4 -0.00175,6.1e-4 -0.00362,0.0015 -6.475e-4,6.6e-5 -0.00113,-6.5e-5 -0.00206,0 -6.569e-4,6.6e-5 -0.00113,-6.5e-5 -0.00206,0 l -1.0464476,0.104387 c -0.3668549,0.03688 -0.66346167,0.323952 -0.71261467,0.689371 v 0.0021 c -0.035753,0.271815 -0.066147,0.563345 -0.066147,0.868679 0,0.305334 0.030394,0.596892 0.066147,0.868679 v 0.0015 c 0.049172,0.365419 0.34575977,0.652473 0.71261467,0.689371 l 1.0505766,0.104386 c 5.63e-4,2.26e-4 6.193e-4,-2.25e-4 0.00156,0 9.384e-4,5.54e-4 0.00174,0.0011 0.00361,0.0021 3.848e-4,3e-4 0.00206,-3e-4 0.00206,0 9.384e-4,9.38e-4 0.00175,0.0027 0.00362,0.0036 9.384e-4,9.01e-4 0.00319,0.0011 0.00413,0.0021 8.539e-4,9.38e-4 6.193e-4,0.0027 0.00156,0.0036 9.384e-4,0.0019 0.00319,0.0017 0.00413,0.0036 2.159e-4,5.81e-4 -2.158e-4,0.0011 0,0.0021 0.051142,0.137409 0.1087409,0.269694 0.1684695,0.39739 9.39e-5,4.98e-4 -9.38e-5,0.0011 0,0.0021 1.783e-4,9.38e-4 -1.689e-4,0.0027 0,0.0036 5.161e-4,0.0038 6.1e-4,0.0061 0.00155,0.0098 1.032e-4,6.1e-4 -1.033e-4,6.1e-4 0,0.0015 -8.45e-5,6.47e-4 7.5e-5,0.0011 0,0.0021 -2.722e-4,3.19e-4 -0.00155,-3.29e-4 -0.00155,0 -2.44e-4,5.44e-4 2.346e-4,6.1e-4 0,0.0015 l -0.00569,0.0057 v 0.0021 l -0.067696,0.08062 v 0.0021 l -0.6015185,0.738458 c -0.23274,0.285947 -0.23868,0.69897 -0.014461,0.991664 0.1636462,0.213315 0.3456004,0.440688 0.5643019,0.659399 0.2159803,0.21598 0.4441034,0.401744 0.6619792,0.56844 0.2939324,0.224885 0.7074254,0.216506 0.993222,-0.01861 v 0.0021 L 5.1288893,22.56865 c 3.941e-4,-3.19e-4 0.00206,3.28e-4 0.00206,0 0.00188,-7.98e-4 0.00381,-0.0011 0.00569,-0.0021 0.00188,-9.39e-4 0.0038,-0.0027 0.00568,-0.0036 6.287e-4,1.04e-4 6.193e-4,-1.03e-4 0.00156,0 0.00188,3.29e-4 0.0038,0.0021 0.00568,0.0021 0.00188,2.53e-4 0.00381,-2.82e-4 0.00569,0 4.88e-4,9.4e-5 0.00113,-9.4e-5 0.00206,0 0.1354193,0.06334 0.2697595,0.120536 0.399464,0.168469 v -0.0021 c 5.912e-4,2.16e-4 0.00113,-2.16e-4 0.00206,0 0.00188,9.38e-4 0.00175,0.0032 0.00362,0.0041 9.384e-4,8.82e-4 0.00267,6.1e-4 0.00361,0.0015 8.82e-4,9.38e-4 0.00112,0.0032 0.00206,0.0041 9.384e-4,0.0019 0.00268,0.0017 0.00362,0.0036 2.252e-4,5.73e-4 -2.252e-4,6.2e-4 0,0.0016 5.63e-4,0.0019 0.00113,0.0023 0.00206,0.0041 6.57e-5,6.75e-4 -6.57e-5,6.1e-4 0,0.0015 l 0.105935,1.050586 c 0.03716,0.367784 0.3264384,0.66471 0.6929836,0.712615 0.2699284,0.03538 0.559244,0.06821 0.8650659,0.06821 0.3060471,0 0.5963292,-0.03265 0.8671303,-0.06821 0.3665458,-0.04795 0.6552788,-0.344831 0.6924578,-0.712615 l 0.104387,-1.052134 c 2.53e-4,-6.57e-4 0.0021,-0.0011 0.0021,-0.0021 3.1e-4,-3.94e-4 -3.1e-4,-0.0015 0,-0.0015 8.63e-4,-9.38e-4 0.0011,-0.0032 0.0021,-0.0041 3.1e-4,-7.7e-4 0.0015,-6.1e-4 0.0015,-0.0015 3.28e-4,-4.22e-4 -3.29e-4,-0.0021 0,-0.0021 5.63e-4,-7.23e-4 0.0011,-0.0011 0.0021,-0.0021 l 0.0036,-0.0015 c 0.0019,-6.95e-4 0.0038,-0.0011 0.0057,-0.0021 0.1100257,-0.04063 0.2188327,-0.08972 0.3281457,-0.139013 h 0.01291 l 0.05685,-0.02946 c 9.39e-4,-2.07e-4 0.0017,-0.0021 0.0036,-0.0021 0.0019,-2.91e-4 0.0038,3.1e-4 0.0057,0 0.0028,-4.31e-4 0.0044,-6.1e-4 0.0072,-0.0015 6.57e-4,8.4e-5 0.0011,-7.5e-5 0.0021,0 5.44e-4,2.35e-4 0.0011,-2.44e-4 0.0021,0 0.0028,0.0019 0.0044,0.0044 0.0072,0.0072 l 0.8175174,0.669205 c 0.286481,0.234279 0.702029,0.240219 0.995286,0.01447 0.214122,-0.164388 0.442011,-0.346379 0.659915,-0.564302 0.216853,-0.216844 0.400815,-0.444104 0.566366,-0.659915 0.225721,-0.293247 0.219265,-0.708805 -0.01499,-0.995286 l -0.603057,-0.734836 v -0.0021 l -0.0677,-0.08062 -0.0021,-0.0015 c -4.03e-4,-8.92e-4 4.04e-4,-0.0032 0,-0.0041 -5.82e-4,-9.38e-4 -6.1e-4,-0.0017 -0.0015,-0.0036 -2.35e-4,-5.54e-4 2.25e-4,-0.0011 0,-0.0021 -3.29e-4,-0.0028 -0.0021,-0.0044 -0.0021,-0.0072 1.13e-4,-6.48e-4 -1.03e-4,-0.0011 0,-0.0021 9.39e-4,-0.0019 0.0027,-0.0038 0.0036,-0.0057 0.06456,-0.135007 0.119026,-0.269722 0.166921,-0.399455 7.32e-4,-0.0019 0.0011,-0.0038 0.0021,-0.0057 3.28e-4,-4.59e-4 -3.29e-4,-6.1e-4 0,-0.0015 2.72e-4,-7.41e-4 0.0015,-0.0011 0.0015,-0.0021 5.44e-4,-7.42e-4 0.0011,-0.0011 0.0021,-0.0021 9.38e-4,-5.16e-4 0.0017,-6.1e-4 0.0036,-0.0015 0.0019,-7.5e-4 0.0038,-0.0011 0.0057,-0.0021 6.85e-4,-2.72e-4 0.0011,-0.0021 0.0021,-0.0021 h 0.0021 l 1.051618,-0.104386 c 0.366855,-0.03688 0.663969,-0.323426 0.713131,-0.688846 v -0.0021 c 0.03575,-0.271515 0.06605,-0.561938 0.06615,-0.866615 0,-0.304433 -0.03049,-0.594921 -0.06615,-0.86713 -0.04795,-0.366545 -0.345347,-0.655795 -0.713131,-0.692974 l -1.051686,-0.10418 c -6.85e-4,-7.5e-5 -0.0011,6.6e-5 -0.0021,0 -9.39e-4,-5.53e-4 -0.0017,-6.19e-4 -0.0036,-0.0016 -5.82e-4,-2.25e-4 -0.0011,2.26e-4 -0.0021,0 -0.0019,-9.38e-4 -0.0017,-0.0032 -0.0036,-0.0041 -9.38e-4,-9.11e-4 -0.0032,-6.1e-4 -0.0041,-0.0015 -8.54e-4,-9.38e-4 -6.1e-4,-0.0032 -0.0015,-0.0041 -9.39e-4,-0.0019 -0.0027,-0.0017 -0.0036,-0.0036 -3.01e-4,-4.03e-4 3e-4,-0.0021 0,-0.0021 -0.0396,-0.106366 -0.08746,-0.216506 -0.137456,-0.32763 v -0.01291 l -0.02946,-0.05685 c -9.4e-5,-6.19e-4 9.4e-5,-0.0011 0,-0.0021 -3.85e-4,-8.17e-4 -0.0021,-0.0011 -0.0021,-0.0021 -2.91e-4,-0.0019 3.1e-4,-0.0033 0,-0.0052 -4.31e-4,-0.0028 -6.1e-4,-0.0049 -0.0015,-0.0078 -1.03e-4,-6.29e-4 1.03e-4,-0.0011 0,-0.0021 -1.03e-4,-6.19e-4 1.03e-4,-6.19e-4 0,-0.0016 0.0019,-0.0028 0.0044,-0.0049 0.0072,-0.0078 l 0.670753,-0.819066 c 0.23427,-0.286481 0.240726,-0.702029 0.01499,-0.995286 -0.166977,-0.217641 -0.351371,-0.442846 -0.566366,-0.657841 -0.216009,-0.21599 -0.444169,-0.401763 -0.661979,-0.56844 -0.293933,-0.224886 -0.707426,-0.216515 -0.993222,0.0186 v -0.0021 l -0.8175174,0.669205 -0.0057,0.0057 c -5.53e-4,2.34e-4 -6.1e-4,-2.44e-4 -0.0015,0 -3.28e-4,2.62e-4 3.19e-4,0.0015 0,0.0015 -3.57e-4,2.91e-4 -0.0021,-2.91e-4 -0.0021,0 -6.57e-4,8.4e-5 -0.0011,-8.4e-5 -0.0021,0 -0.0028,-5.16e-4 -0.0055,-6.1e-4 -0.0093,-0.0015 -0.0028,-4.13e-4 -0.0044,3.84e-4 -0.0072,0 -9.38e-4,-5.54e-4 -0.0032,-0.0011 -0.0041,-0.0021 -0.124581,-0.05809 -0.254764,-0.11713 -0.3937677,-0.168469 -0.0019,-7.32e-4 -0.0038,-0.0011 -0.0057,-0.0021 -9.38e-4,-4.88e-4 -0.0027,-0.0011 -0.0036,-0.0021 -4.41e-4,-3.29e-4 -0.0011,3.19e-4 -0.0021,0 -3.01e-4,-2.16e-4 2.91e-4,-0.0016 0,-0.0016 -2.16e-4,-5.63e-4 2.16e-4,-0.0011 0,-0.0021 -5.73e-4,-7.42e-4 -6.1e-4,-0.0011 -0.0015,-0.0021 -7.5e-4,-0.0019 -0.0011,-0.0033 -0.0021,-0.0052 -9.4e-5,-2.35e-4 -0.0021,2.34e-4 -0.0021,0 -1.69e-4,-4.32e-4 1.6e-4,-0.0021 0,-0.0021 v -0.0021 l -0.104387,-1.048006 c -0.03716,-0.367793 -0.326429,-0.665216 -0.6929738,-0.713131 -0.267498,-0.0351 -0.5558564,-0.0677 -0.8650659,-0.0677 z m 0,0.600993 v 5.16e-4 h 0.00206 c 0.2680423,0 0.5300131,0.02668 0.7880708,0.06046 0.093651,0.0122 0.1625858,0.08387 0.1720823,0.177769 l 0.102829,1.022679 c -0.00188,0.01314 -0.00413,0.0272 -0.00413,0.02739 -9.4e-6,4.51e-4 0.00113,0.02523 0.00206,0.03462 0.00188,0.01877 0.00494,0.03154 0.00775,0.04393 0.00282,0.01239 0.00551,0.02402 0.010857,0.03876 0.00375,0.01098 0.015981,0.033 0.02377,0.04755 0.00469,0.01774 0.0085,0.03797 0.012912,0.04754 0.00563,0.01445 0.01082,0.02492 0.016544,0.03514 0.00563,0.01023 0.01142,0.01871 0.020147,0.03101 0.00563,0.0084 0.019087,0.02177 0.031005,0.03463 4.31e-4,7.98e-4 0.02868,0.04577 0.03825,0.05684 0.0096,0.01117 0.01936,0.01796 0.0279,0.02584 0.0084,0.0075 0.01637,0.01612 0.02894,0.02532 0.0066,0.0047 0.01853,0.01063 0.03308,0.01861 0.01089,0.0099 0.03064,0.02993 0.0403,0.03668 0.0122,0.0084 0.02303,0.01265 0.03307,0.01809 0.01004,0.0056 0.01947,0.011 0.03308,0.01654 0.01361,0.0056 0.06314,0.01851 0.06407,0.01861 2.8e-5,9e-6 0.0047,-2.8e-5 0.0057,0 0.10556,0.03969 0.211889,0.08497 0.3172986,0.133843 0.01248,0.0084 0.04121,0.02692 0.05322,0.03255 0.01455,0.0066 0.02534,0.01123 0.03669,0.01499 0.01126,0.0038 0.02341,0.0074 0.03824,0.01085 0.01248,0.0028 0.04578,0.0047 0.05891,0.0057 0.01708,0.0047 0.04018,0.0095 0.05116,0.01086 0.01539,0.0019 0.02632,0.0021 0.03824,0.0021 0.01192,6.5e-5 0.02299,-2.54e-4 0.03876,-0.0021 0.0099,-9.38e-4 0.02736,-0.0064 0.04548,-0.01086 0.01745,-2.72e-4 0.04225,-3.1e-4 0.05322,-0.0021 0.0152,-0.0028 0.0274,-0.0035 0.03876,-0.0072 0.01136,-0.0028 0.02224,-0.0066 0.03669,-0.01292 0.01023,-0.0038 0.03008,-0.01486 0.04547,-0.02377 0.01717,-0.0047 0.03177,-0.0094 0.04031,-0.01292 0.01417,-0.0066 0.02509,-0.01269 0.03513,-0.0186 0.01004,-0.0056 0.02107,-0.0127 0.03308,-0.02171 0.01201,-0.0094 0.04852,-0.0468 0.04909,-0.04755 2.8e-5,-3.8e-5 0.0032,-0.0068 0.0041,-0.0078 l 0.8009834,-0.654218 v -0.0021 c 0.07301,-0.06006 0.174006,-0.06096 0.249078,-0.0036 0.206033,0.157669 0.410114,0.327443 0.599454,0.516763 0.187922,0.187923 0.355979,0.392605 0.514689,0.599445 0.05762,0.07488 0.05635,0.174372 -0.0036,0.247538 l -0.657841,0.802532 c -0.0019,9.19e-4 -0.0078,0.0057 -0.0078,0.0057 -6.85e-4,6.01e-4 -0.03862,0.03769 -0.04754,0.0496 -0.0084,0.01201 -0.01424,0.02294 -0.02016,0.03308 -0.0056,0.01014 -0.0119,0.02035 -0.01809,0.03462 -0.0038,0.0084 -0.0076,0.02323 -0.01291,0.04031 -0.0084,0.01501 -0.02171,0.03548 -0.02584,0.04599 -0.0056,0.01436 -0.0074,0.02524 -0.01085,0.03669 -0.0028,0.01145 -0.0065,0.02294 -0.0093,0.03824 -0.0019,0.01192 -0.0021,0.04052 -0.0021,0.05685 -0.0047,0.01755 -0.0084,0.03336 -0.0093,0.04237 -0.0019,0.01567 -0.0021,0.02632 -0.0021,0.03824 1.31e-4,0.01192 4.7e-5,0.02338 0.0021,0.03876 0.0019,0.01229 0.01034,0.04164 0.01447,0.05684 5.54e-4,0.0168 6.95e-4,0.03017 0.0021,0.03824 0.0028,0.01539 0.0035,0.02759 0.0072,0.03876 0.0028,0.01117 0.0076,0.02093 0.01292,0.03463 0.0056,0.0137 0.03251,0.05971 0.03307,0.06046 3.8e-5,5.6e-5 0.0065,0.0065 0.0093,0.0093 0.0487,0.105606 0.09234,0.209946 0.130221,0.310063 1.5e-4,0.0038 -10e-6,0.01231 0,0.01241 1.78e-4,9.3e-4 0.01307,0.05117 0.01861,0.06459 0.0056,0.01351 0.01048,0.02252 0.01602,0.03256 0.0056,0.0099 0.01212,0.02087 0.02066,0.03307 0.0066,0.0084 0.0213,0.02449 0.03256,0.03669 0.0094,0.01548 0.01917,0.03581 0.02583,0.04444 0.0096,0.0122 0.01759,0.02059 0.02584,0.02894 0.0084,0.0084 0.01674,0.01607 0.02894,0.02583 0.0056,0.0047 0.0166,0.0085 0.02946,0.01653 3.8e-5,4.7e-5 -9e-6,0.0016 0,0.0016 6.57e-4,7.22e-4 0.03787,0.03392 0.0496,0.04237 0.01173,0.0084 0.02124,0.01462 0.031,0.02016 0.0098,0.0056 0.01966,0.01072 0.03308,0.01653 0.0096,0.0038 0.03008,0.01006 0.04547,0.01447 0.01229,0.0066 0.04004,0.01964 0.05168,0.02377 0.01408,0.0047 0.02534,0.0088 0.03669,0.01137 0.01126,0.0028 0.02304,0.0054 0.03824,0.0072 0.0152,0.0019 0.07089,1.03e-4 0.07182,0 1.9e-5,0 0.0036,-0.0021 0.0036,-0.0021 l 1.024227,0.102829 c 0.09392,0.0095 0.165542,0.07843 0.177769,0.172083 0.03397,0.259193 0.05891,0.524279 0.05891,0.790135 -9.4e-5,0.265865 -0.02504,0.530707 -0.05891,0.788061 -0.01258,0.09328 -0.08407,0.163187 -0.177769,0.172608 l -1.026291,0.102313 c -0.01314,-0.0019 -0.0272,-0.0036 -0.02739,-0.0036 -4.5e-4,-9e-6 -0.02524,0.0011 -0.03463,0.0021 -0.01877,0.0019 -0.03154,0.0044 -0.04393,0.0072 -0.01239,0.0028 -0.02402,0.0055 -0.03876,0.01085 -0.01098,0.0038 -0.0329,0.01599 -0.04754,0.02378 -0.01774,0.0047 -0.03798,0.0085 -0.04755,0.01291 -0.01445,0.0056 -0.0249,0.01082 -0.03513,0.01654 -0.01023,0.0056 -0.01871,0.01142 -0.031,0.02015 -0.0084,0.0056 -0.02177,0.01961 -0.03463,0.03153 -7.97e-4,4.31e-4 -0.04568,0.02867 -0.05685,0.03824 -0.01107,0.0096 -0.01795,0.01884 -0.02583,0.02738 -0.0075,0.0084 -0.01655,0.01688 -0.02584,0.02946 -0.0047,0.0066 -0.01011,0.01853 -0.01808,0.03308 -0.0099,0.01088 -0.02993,0.03064 -0.03669,0.0403 -0.0084,0.0122 -0.01316,0.02303 -0.0186,0.03307 -0.0056,0.01004 -0.01101,0.01947 -0.01654,0.03308 -0.0056,0.01361 -0.01799,0.06313 -0.01808,0.06407 -1e-5,2.9e-5 2.8e-5,0.0047 0,0.0057 -0.03998,0.10724 -0.08352,0.212987 -0.131779,0.315225 -0.0066,0.0084 -0.01574,0.02176 -0.02015,0.02946 -0.0056,0.01023 -0.0095,0.0181 -0.01292,0.02533 -0.0066,0.01464 -0.01133,0.02731 -0.01499,0.03876 -0.0038,0.01154 -0.0065,0.02266 -0.0093,0.03824 -0.0019,0.0095 -0.0027,0.02732 -0.0036,0.04599 -0.0056,0.01736 -0.01122,0.04135 -0.01291,0.05271 -0.0019,0.01577 -0.0036,0.02674 -0.0036,0.03876 -3.38e-4,0.01201 -9.38e-4,0.02464 0,0.04031 9.39e-4,0.01117 0.0064,0.03361 0.01085,0.05116 -7.5e-5,0.01858 6.94e-4,0.03811 0.0021,0.04805 0.0019,0.01567 0.0044,0.0267 0.0072,0.03824 0.0028,0.01154 0.0076,0.02224 0.01291,0.03669 0.0047,0.01323 0.02689,0.05117 0.03101,0.0584 3.57e-4,6.29e-4 0.0021,0.0057 0.0021,0.0057 0.0047,0.01464 0.0065,0.02631 0.0093,0.03307 0.0028,0.0056 0.0049,0.01011 0.0078,0.01499 v 0.0036 l 0.0057,0.0057 c 0.0019,0.0038 0.0029,0.0094 0.0057,0.01292 0.0066,0.01098 0.0134,0.02205 0.02532,0.03669 0.0056,0.0075 0.01307,0.0149 0.02377,0.02532 0.0038,0.0038 0.0094,0.0076 0.01653,0.01292 l 0.661979,0.80667 c 0.05987,0.07319 0.06115,0.17211 0.0036,0.247013 -0.158438,0.206531 -0.326738,0.413061 -0.515214,0.601518 -0.188092,0.18812 -0.394115,0.3543 -0.601003,0.513141 -0.07488,0.05762 -0.174362,0.05635 -0.247529,-0.0036 L 9.7420096,22.113917 c -9.19e-4,-0.0019 -0.0057,-0.0078 -0.0057,-0.0078 -6.01e-4,-6.95e-4 -0.03717,-0.03862 -0.04909,-0.04754 -0.01201,-0.0084 -0.02294,-0.01425 -0.03308,-0.02016 -0.01014,-0.0056 -0.02088,-0.0119 -0.03514,-0.01809 -0.0084,-0.0038 -0.02323,-0.0076 -0.0403,-0.01291 -0.01501,-0.0084 -0.03496,-0.02172 -0.04547,-0.02584 -0.01436,-0.0056 -0.02524,-0.0074 -0.03669,-0.01085 -0.01136,-0.0028 -0.02346,-0.0065 -0.03876,-0.0093 -0.01192,-0.0019 -0.04061,-0.0021 -0.05685,-0.0021 -0.01755,-0.0047 -0.03284,-0.0084 -0.04185,-0.0093 -0.01567,-0.0019 -0.02685,-0.0021 -0.03876,-0.0021 -0.01192,1.32e-4 -0.02285,4.7e-5 -0.03824,0.0021 -0.01229,0.0019 -0.04173,0.01034 -0.05684,0.01447 -0.0168,5.54e-4 -0.03017,6.94e-4 -0.03824,0.0021 -0.01539,0.0028 -0.0276,0.0035 -0.03876,0.0072 -0.01126,0.0028 -0.02092,0.0076 -0.03462,0.01292 -0.0137,0.0056 -0.05971,0.0326 -0.06046,0.03307 -4.7e-5,3.7e-5 -0.0065,0.0065 -0.0093,0.0093 -0.1058037,0.0488 -0.2119447,0.09149 -0.3152237,0.13022 -6.67e-4,2.9e-5 -0.0057,-9e-6 -0.0057,0 -9.38e-4,1.69e-4 -0.05099,0.01255 -0.0646,0.01808 -0.01361,0.0056 -0.02251,0.0111 -0.03255,0.01654 -0.01004,0.0056 -0.02088,0.01015 -0.03308,0.0186 -0.0097,0.0066 -0.02942,0.02674 -0.0403,0.03669 -0.01455,0.0084 -0.0266,0.0134 -0.03308,0.01809 -0.01257,0.0094 -0.02101,0.01795 -0.02946,0.02583 -0.0084,0.0075 -0.01781,0.01424 -0.02738,0.02532 -0.0097,0.01117 -0.03839,0.056 -0.03876,0.05685 -0.011918,0.01286 -0.025281,0.02707 -0.031005,0.03514 -0.00845,0.01229 -0.014423,0.02078 -0.020147,0.031 -0.00563,0.01023 -0.010538,0.02026 -0.016544,0.03462 -0.00375,0.0096 -0.0085,0.03033 -0.012912,0.04807 -0.00751,0.01454 -0.019734,0.03656 -0.02377,0.04754 -0.00563,0.01473 -0.00832,0.02585 -0.010857,0.03824 -0.00282,0.01239 -0.00587,0.02567 -0.00775,0.04444 -8.727e-4,0.0094 -0.00155,0.03416 -0.00155,0.03463 0,1.78e-4 0.00174,0.01392 0.00361,0.02583 l -0.102829,1.0263 c -0.00948,0.09392 -0.07844,0.165523 -0.1720823,0.17776 -0.2604788,0.03416 -0.5251709,0.06047 -0.7901352,0.06047 -0.2644952,0 -0.5280425,-0.0265 -0.7880709,-0.06047 -0.093652,-0.0122 -0.1625857,-0.08387 -0.1720822,-0.17776 l -0.102829,-1.022678 c 6.57e-5,-2.72e-4 0,-0.0041 0,-0.0041 1.032e-4,-9.2e-4 0.00188,-0.05601 0,-0.07131 -0.00188,-0.0152 -0.00442,-0.02698 -0.00723,-0.03824 -0.00282,-0.01126 -0.00602,-0.02252 -0.011373,-0.03669 -0.00375,-0.01154 -0.017388,-0.03938 -0.02377,-0.05168 -0.00469,-0.01539 -0.010341,-0.0359 -0.01447,-0.04547 -0.00563,-0.01332 -0.010998,-0.02323 -0.016534,-0.03308 -0.00563,-0.0098 -0.011711,-0.01979 -0.020157,-0.03152 -0.00845,-0.01173 -0.041721,-0.04843 -0.042378,-0.04909 -9.4e-6,-9e-6 -0.00155,3.8e-5 -0.00155,0 -0.00751,-0.01286 -0.012124,-0.02401 -0.016534,-0.02946 -0.00985,-0.01229 -0.017388,-0.0212 -0.025834,-0.02946 -0.00845,-0.0084 -0.017257,-0.01576 -0.029456,-0.02533 -0.00845,-0.0066 -0.028349,-0.01683 -0.043926,-0.02583 -0.012199,-0.01126 -0.027964,-0.02689 -0.036691,-0.03308 -0.012199,-0.0084 -0.022615,-0.01461 -0.032562,-0.02015 -0.00995,-0.0056 -0.019556,-0.01091 -0.033069,-0.01654 -0.013419,-0.0056 -0.063661,-0.01789 -0.064599,-0.01808 -3.75e-5,-9e-6 -0.0063,5.7e-5 -0.00723,0 -0.1028477,-0.03847 -0.210744,-0.08309 -0.317289,-0.132294 -0.00751,-0.0056 -0.017989,-0.01282 -0.018083,-0.01291 -3.754e-4,-2.35e-4 -0.022287,-0.01396 -0.031014,-0.01809 -0.017454,-0.0084 -0.029982,-0.01259 -0.042368,-0.01653 -0.012387,-0.0038 -0.024361,-0.0065 -0.040313,-0.0093 -0.00957,-0.0019 -0.025627,-0.0027 -0.043926,-0.0036 -0.00845,-0.0019 -0.046948,-0.01339 -0.060461,-0.01499 -0.014733,-0.0019 -0.027213,-0.0015 -0.038756,-0.0015 -0.011542,-1.03e-4 -0.023225,-3.8e-5 -0.038239,0.0015 -0.00976,9.39e-4 -0.026941,0.0046 -0.043926,0.0093 -0.017454,1.6e-4 -0.042153,3.75e-4 -0.053225,0.0021 -0.015296,0.0019 -0.025243,0.0065 -0.036691,0.0093 -0.011355,0.0028 -0.024492,0.006 -0.038755,0.01137 -0.00845,0.0028 -0.019519,0.0117 -0.034627,0.02015 -9.384e-4,6.75e-4 -0.00267,-6.39e-4 -0.00361,0 -8.633e-4,2.25e-4 -0.050852,0.01711 -0.064083,0.02377 -0.013231,0.0066 -0.023122,0.01171 -0.033069,0.01809 -0.00985,0.0066 -0.019228,0.01354 -0.031521,0.02377 -0.00938,0.0075 -0.028677,0.02943 -0.040313,0.04238 l -0.8045959,0.661454 c -0.073007,0.06006 -0.1740154,0.06096 -0.2490867,0.0036 C 3.4774417,22.619248 3.273379,22.449474 3.0840491,22.260144 2.8950476,22.071143 2.7289147,21.865109 2.5708989,21.659142 c -0.056773,-0.07423 -0.054558,-0.172608 0.00362,-0.245465 v -0.0021 l 0.6562925,-0.802532 c 7.788e-4,-4.88e-4 0.00568,-0.0041 0.00568,-0.0041 6.945e-4,-5.91e-4 0.03854,-0.03717 0.047548,-0.04909 0.00938,-0.01201 0.016309,-0.02294 0.022221,-0.03308 0.00188,-0.0038 0.00381,-0.0094 0.00569,-0.01292 0.00375,-0.0066 0.00799,-0.01312 0.012396,-0.02222 0.00375,-0.0084 0.00757,-0.02313 0.012922,-0.0403 0.00845,-0.01548 0.019641,-0.03534 0.02377,-0.04547 0.00563,-0.01436 0.00973,-0.02524 0.012922,-0.03669 0.00282,-0.01135 0.00494,-0.02355 0.00775,-0.03876 0.00188,-0.01107 0.00155,-0.03587 0.00155,-0.05323 0.00469,-0.01811 0.010247,-0.03562 0.011373,-0.04547 0.00188,-0.01576 0.00155,-0.02685 0.00155,-0.03876 -6.57e-5,-0.01192 3.659e-4,-0.02294 -0.00155,-0.03824 -0.00188,-0.01454 -0.013297,-0.0616 -0.014986,-0.06769 -9.38e-5,-3.48e-4 -0.00156,-0.0041 -0.00156,-0.0041 -6.944e-4,-0.01558 -7.132e-4,-0.02721 -0.00206,-0.03463 -0.00282,-0.01605 -0.00555,-0.02782 -0.0093,-0.0403 -0.00375,-0.01248 -0.00846,-0.02492 -0.016535,-0.04238 -0.00375,-0.0084 -0.017905,-0.03063 -0.018092,-0.031 -7.51e-5,-1.13e-4 -0.00757,-0.0095 -0.012922,-0.01654 -0.048515,-0.104433 -0.094365,-0.209261 -0.1338334,-0.31316 -1.126e-4,-0.0028 9.4e-6,-0.01137 0,-0.01137 -1.689e-4,-9.38e-4 -0.013072,-0.05056 -0.018608,-0.06407 -0.00563,-0.01342 -0.010998,-0.02304 -0.016534,-0.03308 -0.00563,-0.0099 -0.011617,-0.02087 -0.020157,-0.03307 -0.00657,-0.0084 -0.021808,-0.02449 -0.033069,-0.03669 -0.00938,-0.01548 -0.018665,-0.03529 -0.025327,-0.04393 -0.00957,-0.0122 -0.017576,-0.02059 -0.025834,-0.02894 -0.00845,-0.0084 -0.016741,-0.01608 -0.02894,-0.02583 -0.00563,-0.0047 -0.0166,-0.0085 -0.029456,-0.01654 -3.566e-4,-2.25e-4 3.66e-4,-0.0021 0,-0.0021 -6.569e-4,-7.23e-4 -0.037883,-0.03341 -0.049613,-0.04185 -0.01173,-0.0084 -0.021245,-0.01462 -0.031004,-0.02016 -0.00976,-0.0056 -0.01965,-0.01072 -0.033069,-0.01654 -0.00957,-0.0038 -0.030601,-0.01057 -0.045991,-0.01499 -0.012293,-0.0066 -0.039525,-0.01965 -0.051161,-0.02378 -0.014076,-0.0047 -0.025336,-0.0083 -0.036691,-0.01085 -0.011261,-0.0028 -0.023038,-0.0054 -0.038239,-0.0072 -0.015202,-0.0019 -0.070895,-1.04e-4 -0.071834,0 -1.88e-5,0 -0.00361,0.0015 -0.00361,0.0015 L 1.6035202,19.069124 c -0.093651,-0.0094 -0.1652133,-0.07934 -0.1777689,-0.172608 -0.033876,-0.257682 -0.058396,-0.523303 -0.058396,-0.789609 0,-0.266297 0.02452,-0.532388 0.058396,-0.790136 0.012574,-0.09328 0.08407,-0.16266 0.1777689,-0.172082 l 1.0226782,-0.102838 c 3.284e-4,9.4e-5 0.00361,0.0021 0.00361,0.0021 9.196e-4,9.3e-5 0.056632,0.0019 0.071834,0 0.015202,-0.0019 0.026979,-0.0049 0.038239,-0.0078 0.011355,-0.0028 0.021067,-0.0055 0.035143,-0.01086 0.011167,-0.0038 0.037836,-0.01683 0.051161,-0.02377 0.017454,-0.0047 0.033313,-0.0094 0.041852,-0.01292 0.014451,-0.0056 0.024914,-0.01081 0.035143,-0.01653 0.010228,-0.0056 0.018712,-0.01143 0.031004,-0.02016 0.00845,-0.0056 0.021771,-0.01909 0.034627,-0.031 7.976e-4,-4.32e-4 0.045672,-0.02918 0.056838,-0.03876 0.011073,-0.0096 0.017961,-0.01885 0.025843,-0.02739 0.00751,-0.0084 0.016544,-0.01688 0.025834,-0.02946 0.00469,-0.0066 0.010116,-0.01852 0.018092,-0.03307 0.00995,-0.01088 0.029925,-0.03064 0.036682,-0.0403 0.00845,-0.0122 0.013166,-0.02304 0.018608,-0.03308 0.00563,-0.01004 0.010998,-0.01946 0.016534,-0.03307 0.00563,-0.01361 0.017998,-0.06314 0.018092,-0.06408 9.4e-6,-2.8e-5 -2.81e-5,-0.0047 0,-0.0057 0.040257,-0.107174 0.0859,-0.211955 0.1338334,-0.31316 0.00563,-0.0075 0.015465,-0.02284 0.020157,-0.03101 0.00563,-0.01023 0.011186,-0.01861 0.01447,-0.02583 0.00657,-0.01454 0.00945,-0.02515 0.012922,-0.03669 0.00375,-0.01154 0.00831,-0.02463 0.010848,-0.0403 0.00188,-0.01032 0.00114,-0.03075 0.00207,-0.04961 0.00469,-0.01792 0.011411,-0.03901 0.012912,-0.04961 0.00188,-0.01567 0.00362,-0.02623 0.00362,-0.03824 2.721e-4,-0.01201 -9.4e-6,-0.02463 -0.00155,-0.0403 -9.384e-4,-0.01042 -0.00513,-0.02944 -0.00982,-0.04755 -1.88e-5,-0.0183 0,-0.04107 -0.00155,-0.05168 -0.00188,-0.01558 -0.00494,-0.02679 -0.00775,-0.03824 -0.00282,-0.01154 -0.00757,-0.02224 -0.012922,-0.03669 -0.00469,-0.01117 -0.019406,-0.03543 -0.027382,-0.0496 -0.00563,-0.01802 -0.00851,-0.03501 -0.012922,-0.04393 -0.00375,-0.0084 -0.00739,-0.01387 -0.010857,-0.02016 -0.00282,-0.0047 -0.00494,-0.01194 -0.00775,-0.01653 -0.00657,-0.01032 -0.013916,-0.02049 -0.02377,-0.03307 -0.00938,-0.01173 -0.043363,-0.04426 -0.049087,-0.04961 -4.223e-4,-3.94e-4 -0.00414,-0.0036 -0.00414,-0.0036 l -0.6521542,-0.79891 v -0.0021 c -0.058086,-0.07282 -0.060301,-0.171284 -0.00362,-0.245464 0.1583161,-0.206324 0.324693,-0.410997 0.5131502,-0.599445 0.187547,-0.187556 0.3935897,-0.355434 0.600993,-0.514698 0.074133,-0.05677 0.1726078,-0.05456 0.2454645,0.0036 l 0.7937481,0.644919 0.00723,0.0078 c 0.00845,0.0096 0.035396,0.03863 0.046,0.04755 0.012293,0.01023 0.021151,0.01739 0.031004,0.02377 0.00985,0.0066 0.019838,0.01203 0.033069,0.0186 0.013231,0.0066 0.063144,0.02349 0.064083,0.02377 9.384e-4,6.38e-4 0.00319,-6.75e-4 0.00413,0 0.015108,0.0084 0.026556,0.01697 0.034627,0.02016 0.014357,0.0056 0.027401,0.0074 0.038755,0.01086 0.011355,0.0028 0.021395,0.0065 0.036691,0.0093 0.011073,0.0019 0.035255,0.0021 0.052709,0.0021 0.016985,0.0038 0.034167,0.0084 0.043926,0.0093 0.015014,0.0019 0.027213,0.0021 0.038756,0.0021 0.011542,-1.12e-4 0.023507,-2.53e-4 0.03824,-0.0021 0.00938,-9.39e-4 0.023891,-0.0064 0.040313,-0.01085 0.00188,-5.35e-4 0.0038,4.69e-4 0.00568,0 0.00845,-5.07e-4 0.050992,-0.0049 0.064599,-0.0078 0.014733,-0.0028 0.02543,-0.0055 0.036691,-0.0093 0.011261,-0.0038 0.022146,-0.0073 0.036691,-0.01447 0.012011,-0.0056 0.040323,-0.02473 0.052709,-0.03308 0.1075397,-0.04974 0.2148166,-0.09388 0.317289,-0.132285 9.384e-4,-5.7e-5 0.00723,9e-6 0.00723,0 9.384e-4,-1.69e-4 0.051086,-0.01246 0.064599,-0.01809 0.013513,-0.0056 0.023028,-0.011 0.033069,-0.01654 0.00995,-0.0056 0.020457,-0.01162 0.032562,-0.02016 0.00845,-0.0066 0.024492,-0.02181 0.036691,-0.03307 0.015484,-0.0094 0.035293,-0.01918 0.043926,-0.02584 0.012199,-0.0096 0.021104,-0.01697 0.029456,-0.02532 0.00845,-0.0084 0.015981,-0.01726 0.025834,-0.02946 0.00469,-0.0056 0.00846,-0.0166 0.016534,-0.02946 2.252e-4,-3.56e-4 0.00155,3.66e-4 0.00155,0 7.226e-4,-6.57e-4 0.033932,-0.03737 0.042378,-0.0491 0.00845,-0.01172 0.01462,-0.02176 0.020157,-0.03152 0.00563,-0.0098 0.010717,-0.01965 0.016534,-0.03307 0.00375,-0.0096 0.01006,-0.03008 0.01447,-0.04547 0.00657,-0.01229 0.01964,-0.03953 0.02377,-0.05116 0.00469,-0.01408 0.00884,-0.02534 0.011373,-0.03669 0.00282,-0.01126 0.00536,-0.02355 0.00723,-0.03876 0.00188,-0.0152 1.032e-4,-0.07038 0,-0.07132 0,-1.9e-5 6.57e-5,-0.0041 0,-0.0041 l 0.102829,-1.022678 c 0.00948,-0.09391 0.078525,-0.165532 0.1720822,-0.177769 0.2594935,-0.03388 0.5213236,-0.0584 0.7880709,-0.0584 z m 0.00206,2.920238 c -1.6213533,0 -2.954855,1.331024 -2.954855,2.952274 0,1.621269 1.3335674,2.954339 2.954855,2.954339 1.621251,0 2.9522741,-1.333004 2.9522741,-2.954339 0,-1.621306 -1.3309581,-2.952274 -2.9522741,-2.952274 z M 19.77398,15.496216 a 0.30000001,0.30000001 0 0 0 -0.218589,0.07234 l -2.648413,2.280996 -1.22112,-0.855241 a 0.30000001,0.30000001 0 0 0 -0.417547,0.0739 0.30000001,0.30000001 0 0 0 0.0739,0.418063 l 1.603524,1.121378 3.001878,-2.586405 a 0.30000001,0.30000001 0 0 0 0.03153,-0.421685 0.30000001,0.30000001 0 0 0 -0.205161,-0.103345 z M 7.2398673,15.757174 c 1.2934046,0 2.351281,1.057886 2.351281,2.351281 0,1.29332 -1.0585334,2.353346 -2.351281,2.353346 -1.292691,0 -2.3533459,-1.060674 -2.3533459,-2.353346 0,-1.292757 1.059998,-2.351281 2.3533459,-2.351281 z m 8.7958457,0.252699 c -0.14166,0 -0.276319,0.0363 -0.392745,0.10129 a 0.30000001,0.30000001 0 0 0 -0.117299,0.408238 0.30000001,0.30000001 0 0 0 0.408238,0.115244 c 0.02964,-0.01655 0.06371,-0.02533 0.101806,-0.02533 h 1.820039 a 0.30000001,0.30000001 0 0 0 0.299216,-0.300755 0.30000001,0.30000001 0 0 0 -0.299216,-0.29869 z m 2.325954,1.878961 a 0.30000001,0.30000001 0 0 0 -0.300754,0.300754 v 0.505915 c 0,0.118951 -0.08587,0.204636 -0.205161,0.204636 h -1.820039 c -0.119288,0 -0.205151,-0.08568 -0.205151,-0.204636 v -0.439767 a 0.30000001,0.30000001 0 0 0 -0.300764,-0.298691 0.30000001,0.30000001 0 0 0 -0.29869,0.298691 v 0.439767 c 0,0.441242 0.363711,0.80667 0.804605,0.80667 h 1.820039 c 0.440894,0 0.805121,-0.365428 0.805121,-0.80667 v -0.505915 a 0.30000001,0.30000001 0 0 0 -0.299206,-0.300754 z" />
  </g>
</svg>
