<?xml version="1.0" encoding="UTF-8" standalone="no"?>
<!-- Created with Inkscape (http://www.inkscape.org/) -->

<svg
   width="100"
   height="100"
   viewBox="0 0 26.458333 26.458333"
   version="1.1"
   id="svg1"
   inkscape:version="1.3.2 (091e20e, 2023-11-25, custom)"
   sodipodi:docname="idoso.svg"
   xmlns:inkscape="http://www.inkscape.org/namespaces/inkscape"
   xmlns:sodipodi="http://sodipodi.sourceforge.net/DTD/sodipodi-0.dtd"
   xmlns="http://www.w3.org/2000/svg"
   xmlns:svg="http://www.w3.org/2000/svg">
  <sodipodi:namedview
     id="namedview1"
     pagecolor="#ffffff"
     bordercolor="#000000"
     borderopacity="0.25"
     inkscape:showpageshadow="2"
     inkscape:pageopacity="0.0"
     inkscape:pagecheckerboard="0"
     inkscape:deskcolor="#d1d1d1"
     inkscape:document-units="mm"
     inkscape:zoom="2.8284271"
     inkscape:cx="119.32427"
     inkscape:cy="107.30345"
     inkscape:window-width="1920"
     inkscape:window-height="991"
     inkscape:window-x="-9"
     inkscape:window-y="-9"
     inkscape:window-maximized="1"
     inkscape:current-layer="layer1" />
  <defs
     id="defs1" />
  <g
     inkscape:label="Camada 1"
     inkscape:groupmode="layer"
     id="layer1">
    <path
       id="path5"
       style="color:#000000;fill:#000000;stroke-linecap:round;-inkscape-stroke:none"
       d="m 11.62536,0.7309602 c -0.662796,-8e-5 -1.304049,0.265389 -1.7730183,0.734323 -0.469733,0.469723 -0.73493,1.113006 -0.734839,1.775602 5.7e-5,0.66266 0.265802,1.306644 0.734839,1.775602 0.4688063,0.468704 1.1099983,0.734402 1.7730183,0.734322 0.662557,-5.7e-5 1.306667,-0.265384 1.775602,-0.734322 0.469035,-0.469033 0.734266,-1.113049 0.734323,-1.775602 7.9e-5,-0.660921 -0.26174,-1.304996 -0.732255,-1.775602 -0.469707,-0.469776 -1.115215,-0.734266 -1.77767,-0.734323 z m 0,0.599964 c 0.50144,4.3e-5 0.999514,0.204162 1.353923,0.558622 0.354461,0.354531 0.554549,0.850166 0.554488,1.351339 -4.3e-5,0.501141 -0.204499,0.997734 -0.558622,1.351855 -0.354199,0.354201 -0.848651,0.558063 -1.349789,0.558106 -0.501377,6e-5 -0.99522,-0.204131 -1.349271,-0.558106 -0.3540983,-0.354037 -0.5585803,-0.850582 -0.5586233,-1.351855 -6.9e-5,-0.501438 0.204081,-0.996804 0.5586233,-1.351339 0.354168,-0.354142 0.848031,-0.558682 1.349271,-0.558622 z m 0,4.964555 c -1.190826,0.0013 -2.2797333,0.242197 -3.1109213,0.650606 -0.827914,0.406801 -1.429193,0.998289 -1.51567,1.738395 -0.01093,0.05127 -0.0217,0.105745 -0.0217,0.167949 v 0.0036 0.460954 0.09767 8.1054488 c 0,0.460445 0.379297,0.839742 0.839742,0.839742 h 0.15658 v 6.658508 c -1.89e-4,0.38774 0.319186,0.70919 0.706933,0.709 h 1.245919 c 0.3877463,1.9e-4 0.7092073,-0.32123 0.7090013,-0.709 v -6.24613 c 0,-0.278257 0.229052,-0.510047 0.505912,-0.510047 h 0.478524 0.01188 0.478524 c 0.276862,0 0.505912,0.231789 0.505912,0.510047 v 6.24613 c -1.89e-4,0.38775 0.319189,0.70919 0.706934,0.709 h 1.247986 c 0.387745,1.9e-4 0.707122,-0.32125 0.706933,-0.709 V 18.656983 18.059087 15.48095 15.067021 h 0.980302 a 0.30000001,0.30000001 0 0 0 0.300758,-0.298674 0.30000001,0.30000001 0 0 0 -0.300757,-0.300757 h -1.579748 v 1.013375 2.578137 0.597896 6.361374 0.002 c 3.1e-5,0.0633 -0.04422,0.10752 -0.107487,0.10749 h -1.247986 c -0.06327,3e-5 -0.107518,-0.0443 -0.107487,-0.10749 v -0.002 -6.246135 c 0,-0.606997 -0.497462,-1.109493 -1.105359,-1.109493 h -0.478524 -0.01188 -0.478524 c -0.607895,0 -1.105359,0.502496 -1.105359,1.109493 v 6.246135 0.002 c 3.4e-5,0.0632 -0.04421,0.10752 -0.1074873,0.10749 h -1.247986 c -0.06329,3e-5 -0.107518,-0.0442 -0.107487,-0.10749 v -0.002 -7.25796 h -0.756026 c -0.138673,0 -0.240295,-0.101623 -0.240295,-0.240295 v -8.1054488 -0.09767 -0.460954 -0.0036 c 0,-0.01451 0.0025,-0.03295 0.0083,-0.05684 l 0.0036,-0.01757 0.0021,-0.01964 c 0.04988,-0.448779 0.461031,-0.918407 1.187525,-1.275374 0.726493,-0.356967 1.7374593,-0.584756 2.8473713,-0.586011 1.157162,-4.5e-5 2.202092,0.246119 2.933671,0.625285 0.731579,0.379168 1.113341,0.863172 1.115178,1.330152 v 0.0021 0.0015 0.460954 0.09612 4.0054398 h 2.965193 c 0.138671,0 0.240296,0.104038 0.240296,0.242363 v 0.413928 a 0.30000001,0.30000001 0 0 0 0.300757,0.300757 0.30000001,0.30000001 0 0 0 0.300756,-0.300757 v -0.413928 c 0,-0.46079 -0.381363,-0.841809 -0.841809,-0.841809 h -2.36523 v -3.4059938 -0.09612 -0.460954 -0.0015 -0.0021 -0.0021 -0.0021 c -0.004,-0.777889 -0.598235,-1.421128 -1.439705,-1.857251 -0.8422,-0.436425 -1.967897,-0.695565 -3.20916,-0.695516 z m 6.508647,8.1721108 c -0.740426,0 -1.348265,0.606029 -1.345654,1.347721 l 0.03359,9.612851 a 0.30000001,0.30000001 0 0 0 0.300757,0.29921 0.30000001,0.30000001 0 0 0 0.29869,-0.30076 l -0.03307,-9.613368 c -0.0015,-0.417086 0.32734,-0.744141 0.745691,-0.744141 0.41835,0 0.746208,0.32579 0.746208,0.744141 a 0.30000001,0.30000001 0 0 0 0.300756,0.300757 0.30000001,0.30000001 0 0 0 0.29869,-0.300757 c 0,-0.740426 -0.605227,-1.345654 -1.345654,-1.345654 z" />
  </g>
</svg>
