<?xml version="1.0" encoding="UTF-8" standalone="no"?>
<!-- Created with Inkscape (http://www.inkscape.org/) -->

<svg
   width="100"
   height="100"
   viewBox="0 0 26.458333 26.458333"
   version="1.1"
   id="svg1"
   inkscape:version="1.3.2 (091e20e, 2023-11-25, custom)"
   sodipodi:docname="mindfullness.svg"
   xmlns:inkscape="http://www.inkscape.org/namespaces/inkscape"
   xmlns:sodipodi="http://sodipodi.sourceforge.net/DTD/sodipodi-0.dtd"
   xmlns="http://www.w3.org/2000/svg"
   xmlns:svg="http://www.w3.org/2000/svg">
  <sodipodi:namedview
     id="namedview1"
     pagecolor="#ffffff"
     bordercolor="#000000"
     borderopacity="0.25"
     inkscape:showpageshadow="2"
     inkscape:pageopacity="0.0"
     inkscape:pagecheckerboard="0"
     inkscape:deskcolor="#d1d1d1"
     inkscape:document-units="mm"
     inkscape:zoom="2"
     inkscape:cx="48.75"
     inkscape:cy="44.75"
     inkscape:window-width="1920"
     inkscape:window-height="991"
     inkscape:window-x="-9"
     inkscape:window-y="-9"
     inkscape:window-maximized="1"
     inkscape:current-layer="layer1" />
  <defs
     id="defs1" />
  <g
     inkscape:label="Camada 1"
     inkscape:groupmode="layer"
     id="layer1">
    <path
       id="path51"
       style="color:#000000;fill:#000000;stroke-linecap:round;stroke-miterlimit:4.2;-inkscape-stroke:none"
       d="m 13.643282,2.9145498 c -0.971199,0.01695 -1.896819,0.156297 -2.68459,0.355534 -0.90031,0.2277 -1.6120405,0.520185 -2.0412195,0.840259 -1.047131,0.780927 -2.008279,2.190674 -2.870626,4.784721 l -0.0083,0.02377 -0.0036,0.02532 c -0.08528,0.540086 -0.522295,1.5541622 -0.939477,2.3926172 -0.415302,0.834676 -0.805214,1.51315 -0.808737,1.519288 -0.02402,0.0325 -0.117895,0.162966 -0.198954,0.349849 -0.04594,0.105913 -0.08873,0.226202 -0.09405,0.371037 -0.0053,0.144834 0.04719,0.338522 0.195337,0.458886 0.104676,0.08505 0.246753,0.169541 0.433565,0.27957 0.186812,0.110029 0.406888,0.23386 0.619084,0.3514 0.338787,0.187662 0.536461,0.292451 0.650606,0.353467 -0.02087,0.238382 -0.142693,1.567569 -0.09198,2.27738 0.02572,0.360096 0.07055,0.700533 0.172083,0.997872 0.101533,0.297337 0.274233,0.578055 0.579809,0.697632 0.178057,0.06967 0.387575,0.09657 0.685747,0.138492 0.298171,0.04192 0.653822,0.08299 0.997871,0.119373 0.648919,0.06861 1.184472,0.11478 1.25057,0.120406 -7.36e-4,0.01183 -5.17e-4,0.04323 -5.17e-4,0.119373 v 0.01602 l 0.0021,0.0155 c 0.08426,0.82042 -0.04659,1.751549 0.222726,2.677873 l 0.0021,0.01137 0.0057,0.01189 c 0.249085,0.651666 0.8513985,1.014279 1.6546805,1.105359 h 0.0078 0.0078 c 1.069341,0.06354 1.709703,-0.135197 2.077909,-0.511596 0.368205,-0.3764 0.395135,-0.86198 0.406177,-1.189592 a 0.30000049,0.30000049 0 0 0 -0.288872,-0.308508 0.30000049,0.30000049 0 0 0 -0.310575,0.288871 c -0.01037,0.307627 -0.03933,0.589957 -0.236161,0.791166 -0.195408,0.199757 -0.633181,0.384579 -1.599903,0.330213 C 10.764164,22.651972 10.45466,22.450213 10.285,22.01261 10.069689,21.252766 10.17967,20.371412 10.086046,19.459794 v 0.03101 c 0,-0.288046 -0.04427,-0.486907 -0.2072225,-0.622701 -0.111828,-0.09319 -0.256609,-0.08885 -0.339514,-0.07751 l 0.0739,-0.0124 c 0,0 -0.633838,-0.05313 -1.314131,-0.125057 -0.340147,-0.03597 -0.692462,-0.07706 -0.978752,-0.117306 -0.286289,-0.04025 -0.536691,-0.09654 -0.548804,-0.101286 -0.07475,-0.02925 -0.158372,-0.121122 -0.230477,-0.332279 -0.0721,-0.211157 -0.118743,-0.51306 -0.142627,-0.847494 -0.04405,-0.616551 0.09974,-2.384867 0.09974,-2.384867 l 0.0155,-0.197404 -0.173633,-0.09353 c 0,0 -0.387706,-0.205627 -0.806669,-0.4377 -0.209482,-0.116036 -0.426591,-0.238187 -0.605648,-0.343648 -0.164697,-0.097 -0.287001,-0.179195 -0.330212,-0.21084 0.0029,-0.02782 0.01505,-0.08202 0.04134,-0.142627 0.05695,-0.131305 0.146244,-0.255798 0.146244,-0.255798 l 0.01189,-0.01395 0.0078,-0.0155 c 0,0 0.402198,-0.697898 0.828374,-1.554427 0.41942,-0.842951 0.864567,-1.8172632 0.986503,-2.5311102 0.839584,-2.52095 1.746782,-3.803049 2.655651,-4.480864 0.304135,-0.226818 0.9819335,-0.5249 1.8324475,-0.740006 0.850512,-0.215105 1.882082,-0.358939 2.942973,-0.337964 2.121781,0.04195 4.322996,0.726899 5.551082,2.777091 a 0.30000049,0.30000049 0 0 0 0.409794,0.10387 0.30000049,0.30000049 0 0 0 0.10387,-0.412378 c -1.360569,-2.271363 -3.807654,-3.023641 -6.052861,-3.06803 -0.140325,-0.0028 -0.280353,-0.0029 -0.419096,-5.17e-4 z m 1.79834,3.555856 -0.150378,0.08785 c -1.312338,0.767844 -2.1128,2.382479 -2.11305,4.1408312 5.8e-4,1.757958 0.801012,3.372644 2.11305,4.140316 l 0.150378,0.08785 0.152446,-0.08785 c 1.312046,-0.767668 2.112976,-2.382355 2.113566,-4.140316 -2.5e-4,-1.7583552 -0.80122,-3.3729912 -2.113566,-4.1408312 z m 0,0.773596 c 0.982088,0.680086 1.663771,1.971074 1.663981,3.4550852 -4.9e-4,1.483619 -0.682173,2.775141 -1.663981,3.455087 -0.981288,-0.680149 -1.663491,-1.971934 -1.663981,-3.455087 2.1e-4,-1.4834842 0.682483,-2.7747692 1.663981,-3.4550852 z m -4.224548,0.312126 -0.08578,0.152445 c -0.752589,1.321139 -0.638663,3.1197032 0.240295,4.6426102 0.49181,0.851189 1.176744,1.534302 1.951302,1.976623 a 0.30000049,0.30000049 0 0 0 0.409795,-0.111104 0.30000049,0.30000049 0 0 0 -0.111105,-0.408244 C 12.946663,13.423036 12.331237,12.81402 11.890937,12.052493 v -0.0021 c -0.744088,-1.290401 -0.798839,-2.7589192 -0.281119,-3.8395582 0.403028,0.03293 0.810417,0.105519 1.203027,0.296623 a 0.30000049,0.30000049 0 0 0 0.400492,-0.138493 0.30000049,0.30000049 0 0 0 -0.138492,-0.400492 c -0.53555,-0.260678 -1.10846,-0.409056 -1.682068,-0.412378 z m 8.105448,0 c -0.573608,0.0033 -1.146001,0.1517 -1.681551,0.412378 a 0.30000049,0.30000049 0 0 0 -0.138493,0.400492 0.30000049,0.30000049 0 0 0 0.399976,0.138493 c 0.392608,-0.191104 0.800524,-0.263697 1.203544,-0.296623 0.517948,1.081119 0.463363,2.5508322 -0.281637,3.8416252 -0.440298,0.761527 -1.055197,1.370543 -1.730127,1.755965 a 0.30000049,0.30000049 0 0 0 -0.111621,0.408244 0.30000049,0.30000049 0 0 0 0.410311,0.111104 c 0.774558,-0.442321 1.459504,-1.125434 1.951302,-1.976623 0.878958,-1.522907 0.992894,-3.3214712 0.240296,-4.6426102 l -0.08785,-0.152445 z m -9.193238,2.392618 C 9.5111565,9.9833358 8.9196745,10.142633 8.4027745,10.437088 l -0.152445,0.08785 v 0.1757 c 0.009,1.520445 1.006905,3.021143 2.5295615,3.900537 0.973078,0.561375 2.056023,0.807225 3.058211,0.718819 a 0.30000049,0.30000049 0 0 0 0.271818,-0.326078 0.30000049,0.30000049 0 0 0 -0.324528,-0.271302 c -0.866558,0.07644 -1.833476,-0.138148 -2.704744,-0.640787 -1.2898085,-0.744915 -2.0713895,-1.989208 -2.1642095,-3.183785 0.38153,-0.180586 0.789129,-0.32377 1.2459185,-0.349333 a 0.30000049,0.30000049 0 0 0 0.283188,-0.316777 0.30000049,0.30000049 0 0 0 -0.316261,-0.2831862 z m 10.457244,0 a 0.30000049,0.30000049 0 0 0 -0.316777,0.2831862 0.30000049,0.30000049 0 0 0 0.283187,0.316777 c 0.4568,0.02556 0.864916,0.168747 1.246436,0.349333 -0.0928,1.194577 -0.874403,2.43887 -2.164209,3.183785 -0.87126,0.502639 -1.838702,0.717229 -2.705262,0.640787 a 0.30000049,0.30000049 0 0 0 -0.324011,0.271302 0.30000049,0.30000049 0 0 0 0.271301,0.326078 c 1.002178,0.08841 2.08566,-0.157444 3.058728,-0.718819 1.522658,-0.879394 2.520275,-2.380092 2.529045,-3.900537 v -0.1757 l -0.151929,-0.08785 C 21.796139,10.142633 21.204656,9.9833378 20.586528,9.9487458 Z M 15.441105,15.3541 a 0.30000049,0.30000049 0 0 0 -0.298689,0.300757 v 2.976563 c 0,0.29126 -0.09062,0.735191 -0.337964,1.07642 -0.247342,0.341228 -0.630871,0.607198 -1.347722,0.607198 -0.695084,0 -1.05265,-0.324847 -1.290877,-0.724504 -0.238226,-0.399655 -0.310575,-0.897028 -0.310575,-1.040763 0,-0.377602 0.11275,-0.617198 0.24598,-0.751892 0.13323,-0.134694 0.289276,-0.179889 0.455269,-0.148828 0.331988,0.06212 0.773928,0.488183 0.716752,1.564762 a 0.30000049,0.30000049 0 0 0 0.285254,0.314193 0.30000049,0.30000049 0 0 0 0.314193,-0.283187 c 0.06689,-1.259587 -0.499414,-2.052962 -1.207162,-2.185396 -0.353873,-0.06622 -0.725696,0.04893 -0.99012,0.316259 -0.264425,0.26733 -0.419613,0.67443 -0.419613,1.174089 0,0.286213 0.08052,0.821336 0.394291,1.347721 0.313768,0.526386 0.906295,1.019059 1.806608,1.019059 0.878547,0 1.488005,-0.379985 1.833997,-0.857312 0.345993,-0.477325 0.451135,-1.02455 0.451135,-1.427819 V 15.654857 A 0.30000049,0.30000049 0 0 0 15.441105,15.3541 Z m 2.87321,1.199927 a 0.30000049,0.30000049 0 0 0 -0.273368,0.189136 c 0,0 -0.191644,0.48255 -0.394808,1.083655 -0.203164,0.601104 -0.420792,1.311276 -0.476457,1.840197 -0.05324,0.505755 -0.02023,1.013563 0.01757,1.42937 0.0189,0.207904 0.03878,0.392144 0.05064,0.537435 0.01186,0.145291 0.0097,0.260195 0.0078,0.271302 -0.0054,0.03242 -0.06117,0.130657 -0.195337,0.243912 -0.134162,0.113255 -0.327806,0.23761 -0.531233,0.359668 -0.10885,0.06531 -0.591374,0.209662 -0.997872,0.296623 -0.406498,0.08696 -0.763778,0.142627 -0.763778,0.142627 a 0.30000049,0.30000049 0 0 0 -0.248047,0.343648 0.30000049,0.30000049 0 0 0 0.343649,0.250114 c 0,0 0.370842,-0.05958 0.7953,-0.150378 0.424458,-0.0908 0.875214,-0.186239 1.179773,-0.36897 0.209982,-0.125991 0.425103,-0.258466 0.609265,-0.413928 0.184162,-0.155463 0.356286,-0.338341 0.400492,-0.603581 0.02295,-0.137723 0.01092,-0.261562 -0.0021,-0.420129 -0.01294,-0.158567 -0.03286,-0.341747 -0.05116,-0.54312 -0.03661,-0.402744 -0.06511,-0.87576 -0.01912,-1.312581 0.04353,-0.413655 0.251219,-1.125105 0.449068,-1.71049 0.197851,-0.585384 0.382923,-1.054716 0.382923,-1.054716 a 0.30000049,0.30000049 0 0 0 -0.167949,-0.388607 0.30000049,0.30000049 0 0 0 -0.115238,-0.02119 z" />
  </g>
</svg>
