<?xml version="1.0" encoding="UTF-8" standalone="no"?>
<!-- Created with Inkscape (http://www.inkscape.org/) -->

<svg
   width="100"
   height="100"
   viewBox="0 0 26.458333 26.458333"
   version="1.1"
   id="svg1"
   inkscape:version="1.3.2 (091e20e, 2023-11-25, custom)"
   sodipodi:docname="politicas.svg"
   xmlns:inkscape="http://www.inkscape.org/namespaces/inkscape"
   xmlns:sodipodi="http://sodipodi.sourceforge.net/DTD/sodipodi-0.dtd"
   xmlns="http://www.w3.org/2000/svg"
   xmlns:svg="http://www.w3.org/2000/svg">
  <sodipodi:namedview
     id="namedview1"
     pagecolor="#ffffff"
     bordercolor="#000000"
     borderopacity="0.25"
     inkscape:showpageshadow="2"
     inkscape:pageopacity="0.0"
     inkscape:pagecheckerboard="0"
     inkscape:deskcolor="#d1d1d1"
     inkscape:document-units="mm"
     inkscape:zoom="2.8284271"
     inkscape:cx="29.521708"
     inkscape:cy="9.7227182"
     inkscape:window-width="1920"
     inkscape:window-height="991"
     inkscape:window-x="-9"
     inkscape:window-y="-9"
     inkscape:window-maximized="1"
     inkscape:current-layer="layer1" />
  <defs
     id="defs1" />
  <g
     inkscape:label="Camada 1"
     inkscape:groupmode="layer"
     id="layer1">
    <path
       id="path16-8"
       style="color:#000000;fill:#000000;stroke-linecap:round;-inkscape-stroke:none"
       d="m 6.39617,4.6343994 c -0.6151203,5.4e-5 -1.2122744,0.24534 -1.6484782,0.681612 -0.4369643,0.437058 -0.6796258,1.036884 -0.6795451,1.650545 5.37e-5,0.615235 0.2460467,1.210846 0.6816121,1.646411 0.4354659,0.435466 1.0311725,0.681558 1.6464112,0.681612 0.6156719,8.1e-5 1.2131326,-0.246361 1.6484782,-0.681612 0.4355845,-0.435489 0.6815581,-1.031073 0.6816121,-1.646411 8.1e-5,-0.615252 -0.2453896,-1.214337 -0.6816121,-1.650545 C 7.6091506,4.8805404 7.0116288,4.6343324 6.39617,4.6343994 Z m 13.664283,0 c -0.61546,-6.7e-5 -1.21143,0.24614 -1.646928,0.681612 -0.436221,0.436208 -0.681693,1.035293 -0.681612,1.650545 5.4e-5,0.615338 0.246028,1.210922 0.681612,1.646411 0.435346,0.435251 1.031256,0.681693 1.646928,0.681612 0.615238,-5.4e-5 1.213012,-0.246146 1.648478,-0.681612 0.435566,-0.435565 0.681558,-1.031176 0.681612,-1.646411 8e-5,-0.613661 -0.243097,-1.213487 -0.680062,-1.650545 -0.436203,-0.436272 -1.034908,-0.681558 -1.650028,-0.681612 z M 6.39617,5.2338454 c 0.4539068,-5e-5 0.9040327,0.185233 1.2247314,0.505913 0.3210277,0.321017 0.5059713,0.772708 0.5059123,1.226798 -4e-5,0.453958 -0.1852756,0.902097 -0.5059123,1.222665 C 7.3003077,8.5097454 6.8501911,8.6951934 6.39617,8.6951334 5.9423468,8.6950934 5.4942367,8.5099514 5.1735056,8.1892214 4.8528506,7.8685664 4.667633,7.4203834 4.6675933,6.9665564 4.6675337,6.5126524 4.8505223,6.0607434 5.1714385,5.7397584 5.4923436,5.4188034 5.9420647,5.2338844 6.39617,5.2338454 Z m 13.664283,0 c 0.454105,3.9e-5 0.90331,0.184958 1.224214,0.505913 0.320918,0.320985 0.504422,0.772894 0.504362,1.226798 -3.9e-5,0.453827 -0.185256,0.902009 -0.505912,1.222665 -0.320731,0.32073 -0.768842,0.505872 -1.222664,0.505912 -0.454022,6e-5 -0.90207,-0.185388 -1.222665,-0.505912 -0.320636,-0.320567 -0.505872,-0.768707 -0.505912,-1.222665 -5.9e-5,-0.45409 0.184885,-0.905781 0.505912,-1.226798 0.320699,-0.320679 0.768757,-0.505963 1.222665,-0.505913 z m -6.832141,0.705384 c -0.615459,-6.7e-5 -1.210913,0.246141 -1.646412,0.681612 -0.436221,0.436208 -0.681695,1.035293 -0.681612,1.650545 5.3e-5,0.615338 0.246028,1.210922 0.681612,1.646411 0.435347,0.4352516 1.03074,0.6816916 1.646412,0.6816116 0.615247,-5.4e-5 1.213011,-0.246146 1.648478,-0.6816116 0.435551,-0.435564 0.681557,-1.031177 0.681612,-1.646411 8e-5,-0.613656 -0.242565,-1.213484 -0.679545,-1.650545 -0.436194,-0.436275 -1.035416,-0.681558 -1.650545,-0.681612 z m 0,0.599446 c 0.454117,4e-5 0.905391,0.184961 1.226281,0.505913 0.320923,0.320982 0.504423,0.77289 0.504362,1.226798 -3.9e-5,0.453828 -0.185266,0.902009 -0.505912,1.222664 -0.320732,0.320732 -0.770895,0.505356 -1.224731,0.505396 -0.454021,5.9e-5 -0.90207,-0.18487 -1.222665,-0.505396 -0.320635,-0.320566 -0.505874,-0.768706 -0.505913,-1.222664 -5.9e-5,-0.454089 0.184888,-0.905782 0.505913,-1.226798 0.320701,-0.32068 0.768757,-0.505962 1.222665,-0.505913 z m -6.830075,3.209107 c -1.1454039,-3e-5 -2.1862539,0.236499 -2.9646769,0.6407876 -0.7722786,0.401098 -1.3179137,0.99741 -1.326534,1.718758 -1.668e-4,0.0014 -0.00192,0.0022 -0.00207,0.0036 -3.75e-5,0.0042 -0.00362,0.0077 -0.00362,0.01189 v 0.05064 0.0021 0.423746 0.0801 a 0.30000001,0.30000001 0 0 0 0.3007568,0.29869 0.30000001,0.30000001 0 0 0 0.3007569,-0.29869 v -0.0801 -0.425814 l 0.00413,-0.03514 -0.00207,-0.01757 c 0.00118,-0.416293 0.3391597,-0.85327 1.0056234,-1.19941 0.6676353,-0.34675 1.6264996,-0.574155 2.6876912,-0.574126 1.2765289,4.5e-5 2.4027026,0.334729 3.0545939,0.798918 a 0.30000001,0.30000001 0 0 0 0.4180624,-0.07028 0.30000001,0.30000001 0 0 0 -0.07028,-0.420129 C 8.9995391,10.08533 7.7760667,9.7478314 6.398237,9.7477824 Z m 13.662216,0 c -1.37783,4.9e-5 -2.603377,0.3375436 -3.404444,0.9079546 a 0.30000001,0.30000001 0 0 0 -0.07028,0.420129 0.30000001,0.30000001 0 0 0 0.418063,0.07028 c 0.651891,-0.464188 1.780132,-0.798873 3.056661,-0.798918 1.061192,-2.9e-5 2.019539,0.227376 2.687174,0.574126 0.665293,0.345531 1.001706,0.781711 1.004073,1.197342 l -0.0021,0.01964 0.0057,0.04289 v 0.418062 0.0801 a 0.30000001,0.30000001 0 0 0 0.301273,0.29869 0.30000001,0.30000001 0 0 0 0.29869,-0.29869 v -0.0801 -0.425814 -0.05064 c 0,-0.0043 -0.0041,-0.0077 -0.0041,-0.01189 -1.2e-5,-0.0015 -0.002,-0.0021 -0.0021,-0.0036 -0.0086,-0.721342 -0.553743,-1.317662 -1.326017,-1.718758 -0.778423,-0.4042886 -1.817205,-0.6408176 -2.96261,-0.6407876 z m -6.832141,1.3048296 c -1.145315,3e-5 -2.184798,0.235983 -2.963127,0.640271 -0.7753838,0.402757 -1.3260219,1.001176 -1.3301519,1.726509 v 0.0021 c -9e-6,0.0021 -0.00155,0.004 -0.00155,0.0062 v 0.01964 0.0036 c -2.49e-4,0.009 0,0.01933 0,0.02739 v 0.425814 0.0801 a 0.30000001,0.30000001 0 0 0 0.3007568,0.300757 0.30000001,0.30000001 0 0 0 0.2986898,-0.300757 v -0.0801 -0.425814 c 0,-0.0075 0.00187,-0.01283 0.00207,-0.0155 l 0.00207,-0.03721 v -0.0021 c 0.0024,-0.415589 0.3404221,-0.851817 1.0056233,-1.197343 0.667542,-0.346742 1.624519,-0.574097 2.685625,-0.574125 1.061191,-3.3e-5 2.019537,0.227378 2.687174,0.574125 0.666464,0.34614 1.004967,0.783119 1.00614,1.19941 l -0.0021,0.01757 0.0041,0.03514 v 0.425814 0.0801 a 0.30000001,0.30000001 0 0 0 0.300757,0.298689 0.30000001,0.30000001 0 0 0 0.29869,-0.298689 v -0.0801 -0.425814 -0.05064 c 1e-6,-0.0028 -0.002,-0.0051 -0.0021,-0.0078 -5e-6,-8.67e-4 -0.002,-0.0012 -0.0021,-0.0021 -0.0054,-0.72422 -0.551467,-1.322684 -1.326017,-1.724959 -0.778425,-0.404288 -1.819274,-0.640307 -2.964677,-0.640271 z M 1.6496897,13.15791 c -0.1041552,0.0041 -0.2178197,0.03433 -0.315743,0.101802 -0.37661114,0.259433 -0.42873935,0.744525 -0.2387451,1.048515 0.1299164,0.207813 1.7461466,2.746086 1.7461466,2.746086 l 0.031523,0.04909 0.048576,0.03307 c 0,0 0.5626482,0.401572 1.1937256,0.839742 0.6310773,0.43817 1.3052776,0.900675 1.624707,1.072286 0.5885323,0.316225 2.4241414,1.105359 2.4241414,1.105359 A 0.30000001,0.30000001 0 0 0 8.5583119,19.997802 0.30000001,0.30000001 0 0 0 8.4022491,19.602995 c 0,0 -1.8907975,-0.819172 -2.379183,-1.081588 C 5.8040133,18.403719 5.0841057,17.919844 4.4567535,17.48426 3.8530407,17.065092 3.3541746,16.707642 3.3141876,16.679142 3.2536986,16.584162 1.7066214,14.155362 1.6031809,13.9899 c -0.04465,-0.07144 -0.072396,-0.131754 0.07028,-0.232544 0.014158,0.0018 0.05169,0.01338 0.089917,0.03514 0.076453,0.04351 0.1405599,0.107487 0.1405599,0.107487 l 1.6055868,1.734261 a 0.30000001,0.30000001 0 0 0 0.4237467,0.01602 0.30000001,0.30000001 0 0 0 0.015503,-0.423747 l -1.6092041,-1.740462 -0.00207,-0.0021 c 0,0 -0.1108261,-0.118339 -0.2769857,-0.212907 -0.083083,-0.04725 -0.1843393,-0.09308 -0.3105753,-0.109037 -0.031559,-0.004 -0.065534,-0.0055 -0.1002523,-0.0041 z m 23.1587933,0 c -0.03472,-0.0014 -0.06818,1.47e-4 -0.09973,0.0041 -0.126235,0.01595 -0.227496,0.06175 -0.310576,0.109037 -0.166158,0.09457 -0.277502,0.212906 -0.277502,0.212907 l -0.0021,0.0021 -1.418001,1.53324 a 0.30000001,0.30000001 0 0 0 0.01602,0.423746 0.30000001,0.30000001 0 0 0 0.423747,-0.0155 l 1.415934,-1.531172 c 0.0038,-0.0038 0.06438,-0.06169 0.138493,-0.10387 0.03823,-0.02176 0.07577,-0.03335 0.08992,-0.03514 0.141539,0.10037 0.113277,0.161268 0.06873,0.232544 -0.103529,0.165604 -1.655107,2.600292 -1.713074,2.691309 -0.04291,0.03058 -0.538623,0.385159 -1.140499,0.803051 -0.627352,0.435584 -1.34571,0.919462 -1.564762,1.037147 -0.488386,0.262416 -2.378666,1.082104 -2.378666,1.082104 a 0.30000001,0.30000001 0 0 0 -0.15658,0.394291 0.30000001,0.30000001 0 0 0 0.394808,0.156063 c 0,0 1.835091,-0.789134 2.423625,-1.105359 0.319428,-0.171611 0.994146,-0.634116 1.625223,-1.072286 0.631077,-0.43817 1.193209,-0.839742 1.193209,-0.839742 l 0.04703,-0.03307 0.03101,-0.04909 c 0,0 1.618299,-2.538275 1.748213,-2.746086 0.189997,-0.30399 0.138385,-0.789082 -0.238228,-1.048515 -0.09792,-0.06746 -0.212104,-0.09766 -0.31626,-0.101802 z M 5.2437855,14.823958 c -0.2395698,0.0048 -0.593115,0.112092 -0.7518921,0.451135 -0.1293943,0.276318 -0.1622211,0.578928 -0.078031,0.855245 0.081139,0.266302 0.2809439,0.500834 0.5601726,0.626835 a 0.30000001,0.30000001 0 0 0 0.031523,0.02377 l 1.9688721,0.804602 A 0.30000001,0.30000001 0 0 0 7.3666542,17.421731 0.30000001,0.30000001 0 0 0 7.2028399,17.02899 L 5.2913287,16.248676 a 0.30000001,0.30000001 0 0 0 -0.057361,-0.03204 c -0.1425819,-0.05886 -0.2107642,-0.144353 -0.2459798,-0.259933 -0.035216,-0.11558 -0.027336,-0.269084 0.047026,-0.427881 0.044991,-0.09607 0.1010102,-0.103029 0.2206584,-0.10542 0.1176889,-0.0024 0.2268266,0.03042 0.2304769,0.03152 6.08e-5,1.8e-5 0.00362,0 0.00362,0 l 2.039152,0.816488 0.08785,-0.01757 c 0,0 0.2152121,-0.04652 0.4981608,-0.0708 0.2829487,-0.02428 0.6327578,-0.01713 0.8340576,0.04702 0.2381303,0.0759 0.4318258,0.258423 0.5493205,0.40411 l 0.7808309,1.166337 a 0.30000001,0.30000001 0 0 0 0.415995,0.08217 0.30000001,0.30000001 0 0 0 0.08372,-0.415995 l -0.768945,-1.145666 a 0.30000001,0.30000001 0 0 0 -0.027905,-0.04392 C 9.8222321,16.074021 9.5461499,15.790527 9.1303783,15.658008 8.7770047,15.545395 8.3840612,15.558218 8.0642935,15.585658 c -0.2626767,0.02255 -0.398859,0.05302 -0.4671549,0.06615 l -1.909961,-0.763261 -0.00982,-0.0021 c 0,0 -0.1939953,-0.06732 -0.4335653,-0.06253 z m 15.9706015,0 c -0.239569,-0.0048 -0.433565,0.06253 -0.433565,0.06253 l -0.0098,0.0021 -1.909961,0.763778 c -0.0683,-0.01313 -0.203962,-0.04411 -0.466638,-0.06666 -0.319768,-0.02745 -0.713227,-0.04027 -1.066602,0.07235 -0.415772,0.132519 -0.691855,0.416008 -0.851628,0.619084 a 0.30000001,0.30000001 0 0 0 -0.0047,0.0093 0.30000001,0.30000001 0 0 0 -0.0088,0.01033 l -0.783414,1.169954 a 0.30000001,0.30000001 0 0 0 0.08216,0.415996 0.30000001,0.30000001 0 0 0 0.415996,-0.08217 l 0.780314,-1.16272 c 0.117219,-0.146206 0.311485,-0.331262 0.551387,-0.407727 0.2013,-0.06415 0.549559,-0.0708 0.832508,-0.04651 0.282948,0.02429 0.499711,0.07028 0.499711,0.07028 l 0.08785,0.01757 2.043286,-0.816488 c 0.0037,-0.0011 0.112788,-0.03387 0.230477,-0.03152 0.119648,0.0024 0.175667,0.0094 0.220658,0.10542 0.07436,0.158797 0.08173,0.3123 0.04651,0.427881 -0.03522,0.11558 -0.103397,0.20107 -0.24598,0.259933 a 0.30000001,0.30000001 0 0 0 -0.03462,0.02274 l -1.934249,0.789616 a 0.30000001,0.30000001 0 0 0 -0.163814,0.392741 0.30000001,0.30000001 0 0 0 0.390673,0.163814 l 1.970423,-0.804602 a 0.30000001,0.30000001 0 0 0 0.07235,-0.04341 c 0.257947,-0.129783 0.442718,-0.353483 0.519865,-0.606681 0.08419,-0.276317 0.05085,-0.579444 -0.07855,-0.855762 -0.158731,-0.339095 -0.512323,-0.446346 -0.751893,-0.451135 z m -9.478491,2.710945 c -0.241062,0 -0.481873,0.0912 -0.664042,0.273369 l -2.4143233,2.414323 c -0.3643397,0.36434 -0.3643397,0.963745 0,1.328084 0.3643396,0.36434 0.9642614,0.36434 1.328601,0 l 2.4143233,-2.413806 c 0.364341,-0.364339 0.36434,-0.964262 0,-1.328601 -0.182169,-0.18217 -0.423497,-0.273369 -0.664559,-0.273369 z m 2.985864,0 c -0.241061,0 -0.481872,0.0912 -0.664042,0.273369 -0.364339,0.36434 -0.364339,0.964261 0,1.328601 l 2.413806,2.413806 c 0.364339,0.364339 0.964262,0.36434 1.328602,0 0.364339,-0.364339 0.364339,-0.963744 0,-1.328084 L 15.386319,17.808272 C 15.20415,17.626102 14.962822,17.534903 14.72176,17.534903 Z m -2.985864,0.594796 c 0.08599,0 0.171978,0.034 0.240296,0.10232 0.136636,0.136636 0.136635,0.343954 0,0.480591 l -2.413807,2.414323 c -0.1366369,0.136635 -0.343955,0.136635 -0.4805908,0 -0.1366359,-0.136637 -0.1366359,-0.343954 0,-0.480591 L 11.4956,18.232019 c 0.06832,-0.06832 0.154303,-0.102319 0.240296,-0.10232 z m 2.985348,5.17e-4 c 0.08565,3.45e-4 0.17146,0.03504 0.239778,0.103353 l 2.413807,2.414323 c 0.136635,0.136637 0.138168,0.342405 0.0016,0.479041 -0.136636,0.136635 -0.343954,0.136635 -0.480591,0 L 14.481515,18.71261 c -0.136636,-0.136637 -0.136636,-0.343955 0,-0.480591 0.06832,-0.06832 0.15413,-0.102148 0.239779,-0.101803 z" />
  </g>
</svg>
