<?xml version="1.0" encoding="UTF-8" standalone="no"?>
<!-- Created with Inkscape (http://www.inkscape.org/) -->

<svg
   width="100"
   height="100"
   viewBox="0 0 26.458333 26.458333"
   version="1.1"
   id="svg1"
   inkscape:version="1.3.2 (091e20e, 2023-11-25, custom)"
   sodipodi:docname="psicoeducacao.svg"
   xmlns:inkscape="http://www.inkscape.org/namespaces/inkscape"
   xmlns:sodipodi="http://sodipodi.sourceforge.net/DTD/sodipodi-0.dtd"
   xmlns="http://www.w3.org/2000/svg"
   xmlns:svg="http://www.w3.org/2000/svg">
  <sodipodi:namedview
     id="namedview1"
     pagecolor="#ffffff"
     bordercolor="#000000"
     borderopacity="0.25"
     inkscape:showpageshadow="2"
     inkscape:pageopacity="0.0"
     inkscape:pagecheckerboard="0"
     inkscape:deskcolor="#d1d1d1"
     inkscape:document-units="mm"
     inkscape:zoom="1.4142136"
     inkscape:cx="176.42314"
     inkscape:cy="77.428192"
     inkscape:window-width="1920"
     inkscape:window-height="991"
     inkscape:window-x="-9"
     inkscape:window-y="-9"
     inkscape:window-maximized="1"
     inkscape:current-layer="layer1" />
  <defs
     id="defs1" />
  <g
     inkscape:label="Camada 1"
     inkscape:groupmode="layer"
     id="layer1">
    <path
       id="path68"
       style="color:#000000;fill:#000000;stroke-linecap:round;stroke-miterlimit:4.2;-inkscape-stroke:none"
       d="m 22.502988,1.6904892 c -0.440056,0.01036 -0.796968,0.274617 -1.011825,0.603064 -0.215806,0.329839 -0.234985,0.665754 -0.185518,0.898653 0.04947,0.232899 0.170015,0.392741 0.170015,0.392741 a 0.30000049,0.30000049 0 0 0 0.42013,0.05426 0.30000049,0.30000049 0 0 0 0.05633,-0.419612 c 0,0 -0.0379,-0.04623 -0.06046,-0.152446 -0.02256,-0.106216 -0.02942,-0.243617 0.101286,-0.443384 0.131574,-0.201131 0.320747,-0.329006 0.52555,-0.333829 0.2048,-0.0048 0.486593,0.10303 0.824239,0.544669 0.314016,0.410709 0.525346,1.155027 0.634586,1.785421 0.109241,0.630394 0.129191,1.140499 0.129191,1.140499 a 0.30000049,0.30000049 0 0 0 0.310576,0.288871 0.30000049,0.30000049 0 0 0 0.288871,-0.310575 c 0,0 -0.01982,-0.54977 -0.136426,-1.222665 -0.116604,-0.672893 -0.315661,-1.476316 -0.750342,-2.044836 -0.41102,-0.537616 -0.876145,-0.791194 -1.316198,-0.780831 z m -3.166215,1.458826 c -0.02393,8.3e-5 -0.04767,0.0013 -0.0708,0.0031 -0.185014,0.01406 -0.375389,0.07207 -0.583427,0.159681 -0.416077,0.175223 -0.898744,0.476514 -1.381311,0.871781 -0.482567,0.395267 -0.873323,0.809459 -1.127063,1.182873 -0.126871,0.186709 -0.219528,0.360882 -0.269751,0.539502 -0.05022,0.178622 -0.05997,0.398297 0.0832,0.573092 0.143173,0.174795 0.360174,0.208363 0.545186,0.194303 0.185015,-0.01406 0.374355,-0.07103 0.582394,-0.158646 0.416075,-0.175226 0.898744,-0.476515 1.381311,-0.871782 0.482565,-0.395265 0.872806,-0.809458 1.126546,-1.182873 0.12687,-0.186708 0.221596,-0.361914 0.271818,-0.540536 0.05022,-0.17862 0.05997,-0.398296 -0.0832,-0.573091 C 19.6864,3.1937732 19.504274,3.1487352 19.33677,3.1493152 Z m -0.02481,0.601513 c 0.0031,-2.34e-4 0.0039,1.67e-4 0.0067,0 -6.86e-4,0.0026 -7.56e-4,0.0034 -0.0016,0.0062 -0.02239,0.07962 -0.08719,0.213039 -0.190686,0.365352 -0.206996,0.304625 -0.565917,0.690931 -1.011308,1.05575 -0.445393,0.364815 -0.893057,0.639435 -1.232483,0.782381 -0.169713,0.07147 -0.313371,0.108454 -0.395842,0.114721 -0.0029,2.19e-4 -0.0036,-1.59e-4 -0.0062,0 6.93e-4,-0.0026 7.47e-4,-0.0033 0.0016,-0.0062 0.02238,-0.07962 0.08667,-0.21304 0.190169,-0.365352 0.206995,-0.304625 0.564367,-0.6899 1.009757,-1.054716 0.445394,-0.364819 0.894608,-0.640469 1.234034,-0.783415 0.169711,-0.07147 0.313371,-0.108455 0.395841,-0.114722 z m 1.319816,0.222726 a 0.30000001,0.30000001 0 0 0 -0.208773,0.0956 0.30000001,0.30000001 0 0 0 0.01137,0.423747 c 1.465114,1.378275 2.256315,1.934607 3.693831,3.279386 0.0026,0.0038 0.0257,0.04574 -0.01395,0.191203 -0.04046,0.148422 -0.143695,0.365805 -0.306441,0.607715 -0.325499,0.48382 -0.878935,1.078827 -1.56683,1.6422768 -0.687888,0.563449 -1.381329,0.987461 -1.919779,1.211296 -0.269226,0.111917 -0.50074,0.173014 -0.654224,0.183451 -0.151965,0.01033 -0.188727,-0.02465 -0.191203,-0.02739 L 16.993244,7.3232182 a 0.30000001,0.30000001 0 0 0 -0.412377,-0.107487 0.30000001,0.30000001 0 0 0 -0.106971,0.409794 l 2.519226,4.3185998 0.0155,0.01757 c 0.172456,0.210544 0.442687,0.261354 0.699182,0.243913 0.256499,-0.01744 0.53577,-0.09826 0.843877,-0.226343 0.616211,-0.256161 1.34504,-0.706333 2.070674,-1.300696 0.725641,-0.594366 1.310596,-1.2198468 1.683102,-1.7735348 0.186251,-0.276846 0.321507,-0.535376 0.389123,-0.783415 0.06762,-0.248038 0.06858,-0.521712 -0.103869,-0.732255 l -0.01137,-0.0155 -0.01395,-0.01395 c -1.478086,-1.385558 -2.262346,-1.934217 -3.718636,-3.304191 a 0.30000001,0.30000001 0 0 0 -0.214974,-0.08216 z M 2.0416986,5.1843332 a 0.30003001,0.30003001 0 0 0 -0.08372,0.01189 0.30003001,0.30003001 0 0 0 -0.203088,0.208773 c 0,0 -10e-4,0.02284 -0.0021,0.02946 h -0.0036 c 0,0 6.15e-4,0.05858 0,0.06253 -0.0011,0.0201 -0.0042,0.0275 -0.0021,0.04496 3.82e-4,0.0031 0.0031,0.0066 0.0036,0.0098 -0.01303,0.09097 -0.06304,0.37364 0.0078,0.789099 0.04066,0.238585 0.118991,0.497 0.283187,0.726571 0.164196,0.229571 0.423197,0.422621 0.761711,0.494027 0.573126,0.12089 1.034146,0.102966 1.353922,0.05271 0.319779,-0.05026 0.521416,-0.144694 0.521416,-0.144694 a 0.30003001,0.30003001 0 0 0 0.170015,-0.250114 c 0,0 0.08652,-0.917159 -0.633036,-1.370976 -0.37631,-0.237366 -0.793951,-0.203336 -1.120862,-0.179834 -0.163455,0.01175 -0.31003,0.02258 -0.412378,0.01757 -0.102349,-0.005 -0.144801,-0.02629 -0.150378,-0.03101 -0.142425,-0.120515 -0.186483,-0.19498 -0.19327,-0.208773 l -5.17e-4,5.17e-4 a 0.30003001,0.30003001 0 0 0 -0.296623,-0.262516 z m 7.777303,0.165881 a 0.30003049,0.30003049 0 0 0 -0.113171,0.0021 0.30003049,0.30003049 0 0 0 -0.232027,0.335897 c -0.0025,-0.02009 -0.0051,-0.0385 -0.0041,-0.04703 0.0018,-0.01461 0.0062,-0.01379 -0.0036,0.0062 -0.01963,0.03989 -0.09372,0.155021 -0.300756,0.330212 -0.03789,0.03206 -0.126374,0.06475 -0.281637,0.07235 -0.155262,0.0076 -0.360733,-0.0095 -0.587561,-0.02584 -0.453657,-0.03262 -1.010478,-0.07276 -1.494483,0.232544 -0.934921,0.589686 -0.827856,1.80454 -0.827856,1.804541 a 0.30003049,0.30003049 0 0 0 0.170016,0.250114 c 0,0 0.264001,0.123651 0.697115,0.191719 0.433111,0.06807 1.058606,0.09122 1.843815,-0.07441 0.444553,-0.09377 0.777663,-0.340851 0.992187,-0.640788 0.214525,-0.299934 0.319909,-0.645644 0.3746544,-0.966866 0.09814,-0.575836 0.02495,-0.994359 0.0098,-1.097607 4.28e-4,-0.003 0.0037,-0.0068 0.0041,-0.0098 0.0024,-0.01984 -8.23e-4,-0.02681 -0.0021,-0.04857 -5.54e-4,-0.0035 0,-0.06821 0,-0.06821 h -0.0036 c -9.26e-4,-0.0061 -0.0021,-0.02946 -0.0021,-0.02946 A 0.30003049,0.30003049 0 0 0 9.8189526,5.3502692 Z m -7.480163,0.0987 c 0.0011,0.0043 0.0024,0.01095 0.0036,0.02067 6.03e-4,0.0049 -0.0011,0.01438 -0.0015,0.02119 a 0.30003001,0.30003001 0 0 0 -0.0021,-0.04186 z m 0.0098,0.733289 c 0.103477,0.03869 0.205692,0.09901 0.304891,0.103869 0.165266,0.0081 0.327156,-0.0083 0.484208,-0.01964 0.314108,-0.02258 0.589238,-0.01626 0.757577,0.08992 0.287108,0.181077 0.263933,0.470546 0.273885,0.638721 -0.04982,0.01234 -0.03084,0.01559 -0.105937,0.02739 -0.253372,0.03982 -0.634879,0.05626 -1.134297,-0.04909 -0.197755,-0.04171 -0.308618,-0.129513 -0.398942,-0.255799 -0.09032,-0.126284 -0.150821,-0.299194 -0.181385,-0.478523 -0.0049,-0.02865 0.0035,-0.02847 0,-0.05684 z m 7.115328,0.281636 c -0.0052,0.121205 0.01823,0.126628 -0.0041,0.257866 -0.04465,0.261965 -0.13065,0.5201 -0.271301,0.716752 -0.140651,0.196648 -0.325107,0.33796 -0.628902,0.402042 -0.7115,0.150082 -1.260072,0.127914 -1.626774,0.07028 -0.234109,-0.03679 -0.259425,-0.06108 -0.337964,-0.08992 0.0097,-0.241273 0.06072,-0.764166 0.527099,-1.058333 0.276034,-0.174115 0.690345,-0.172255 1.131197,-0.14056 0.220428,0.01585 0.441727,0.036 0.659909,0.02532 0.188155,-0.0092 0.378111,-0.07151 0.55087,-0.183451 z m -4.293278,1.188558 a 0.30000049,0.30000049 0 0 0 -0.09353,0.0088 0.30000049,0.30000049 0 0 0 -0.217041,0.364836 c 0.165142,0.644684 0.346859,1.061804 0.718819,1.406632 0.426044,0.394977 0.692647,0.555957 0.826306,0.7027998 0.133659,0.146844 0.213194,0.317395 0.312643,0.886767 0.03989,0.225886 0.02768,0.57415 0.03876,1.017509 a 0.30000049,0.30000049 0 0 0 0.309025,0.293006 0.30000049,0.30000049 0 0 0 0.292489,-0.306442 c -0.01052,-0.420604 0.01015,-0.774912 -0.04858,-1.107426 -0.106241,-0.608256 -0.234765,-0.9390228 -0.460954,-1.1875238 -0.226188,-0.2485 -0.471151,-0.376625 -0.861446,-0.738456 -0.276179,-0.256036 -0.388612,-0.505957 -0.54467,-1.115178 a 0.30000049,0.30000049 0 0 0 -0.271818,-0.225309 z m 10.9982954,1.0573 -3.351733,0.373104 a 0.30003049,0.30003049 0 0 0 -0.250114,0.392741 l 0.254248,0.7539588 a 0.30003049,0.30003049 0 0 0 0.238228,0.201021 l 4.246253,0.640788 a 0.30000049,0.30000049 0 0 0 0.339514,-0.252181 0.30000049,0.30000049 0 0 0 -0.251664,-0.340031 l -4.062801,-0.6149498 -0.07597,-0.226859 2.98018,-0.329696 a 0.30000049,0.30000049 0 0 0 0.265617,-0.332279 0.30000049,0.30000049 0 0 0 -0.331763,-0.265617 z m -4.265889,0.38654 c -0.70854,0.05884 -1.3516,0.230777 -1.816427,0.607714 C 9.6218446,10.08089 9.3821796,10.692639 9.5202946,11.420643 a 0.30000049,0.30000049 0 0 0 0.351916,0.238228 0.30000049,0.30000049 0 0 0 0.2382284,-0.349333 c -0.106912,-0.563544 0.03674,-0.882107 0.353467,-1.138948 0.31673,-0.2568448 0.852653,-0.4235048 1.490349,-0.4764568 a 0.30000049,0.30000049 0 0 0 0.273368,-0.324011 0.30000049,0.30000049 0 0 0 -0.324528,-0.273885 z m 0.136942,0.694014 a 0.30000049,0.30000049 0 0 0 -0.06614,0.0093 c 0,0 -0.303614,0.07956 -0.615467,0.2676838 -0.311851,0.188125 -0.682629,0.522297 -0.697115,1.035079 a 0.30000049,0.30000049 0 0 0 0.290939,0.308508 0.30000049,0.30000049 0 0 0 0.308508,-0.290938 c 0.0064,-0.226348 0.180998,-0.401902 0.408244,-0.538985 0.227243,-0.137086 0.456819,-0.199472 0.456819,-0.199472 a 0.30000049,0.30000049 0 0 0 0.212907,-0.366902 0.30000049,0.30000049 0 0 0 -0.29869,-0.2242758 z m -0.486275,2.4448118 c -0.739435,10e-6 -1.321026,0.473646 -1.6582974,1.103809 -0.369162,-0.444852 -0.869816,-0.764691 -1.462959,-0.765845 a 0.30003049,0.30003049 0 0 0 -0.0021,0 c -0.718862,2.4e-4 -1.324071,0.432684 -1.669666,1.046964 -0.1936,-0.062 -0.387438,-0.130575 -0.591695,-0.130741 -1.086462,-3.9e-5 -1.974592,0.888095 -1.974557,1.974557 -0.72834,0.300905 -1.26392,0.957136 -1.264005,1.763716 -3.4e-5,1.086462 0.886544,1.972528 1.973006,1.97249 a 0.30003049,0.30003049 0 0 0 0.0016,0 c 0.167107,-7.24e-4 0.325414,-0.05739 0.486276,-0.09974 0.177538,0.906573 0.879084,1.642737 1.836063,1.642794 0.300577,-0.001 0.572284,-0.136379 0.839742,-0.267684 0.321657,0.680552 0.952078,1.175297 1.722893,1.175639 a 0.30003049,0.30003049 0 0 0 0.0021,0 c 0.4132094,-0.0011 0.7329544,-0.276759 1.0624674,-0.511597 0.108347,0.985446 0.883186,1.78691 1.896525,1.786971 0.785432,-8.14e-4 1.426888,-0.511737 1.739946,-1.212846 0.102165,0.01676 0.20321,0.04236 0.306958,0.04289 a 0.30003049,0.30003049 0 0 0 0.0021,0 c 1.086466,3.9e-5 1.972531,-0.888091 1.972489,-1.974557 -8.24e-4,-0.212818 -0.07694,-0.412868 -0.144694,-0.613399 0.712284,-0.306898 1.234885,-0.949381 1.236617,-1.74408 3.5e-5,-1.086454 -0.886549,-1.974588 -1.973006,-1.974556 -0.07049,7.3e-5 -0.138841,0.02187 -0.208773,0.02946 -0.105391,-0.988589 -0.882977,-1.793203 -1.898592,-1.793173 -0.140544,1.4e-5 -0.274976,0.04272 -0.411861,0.07235 -0.221426,-0.852017 -0.908135,-1.521102 -1.816427,-1.523421 a 0.30003049,0.30003049 0 0 0 -0.0021,0 z m 0,0.599447 c 0.720859,0.0018 1.314377,0.55491 1.367359,1.273824 a 0.30003049,0.30003049 0 0 0 0.399975,0.259415 c 0.14881,-0.0534 0.30492,-0.08008 0.463021,-0.0801 0.761525,-2.3e-5 1.372019,0.610223 1.373043,1.371493 v 0.0021 c -0.0013,0.03872 -0.0033,0.07675 -0.0078,0.115238 a 0.30003049,0.30003049 0 0 0 0.376722,0.324011 c 0.118834,-0.03288 0.24205,-0.04896 0.365352,-0.04909 0.76218,-2.3e-5 1.373067,0.610862 1.373043,1.373042 -0.0014,0.63038 -0.42723,1.17534 -1.038697,1.328601 a 0.30003049,0.30003049 0 0 0 -0.195336,0.425297 c 0.09366,0.188391 0.141811,0.395264 0.142626,0.605648 -10e-4,0.760621 -0.610872,1.372024 -1.371492,1.373043 -0.121418,-6.28e-4 -0.242129,-0.01826 -0.359151,-0.05064 a 0.30003049,0.30003049 0 0 0 -0.36897,0.21084 c -0.164004,0.596428 -0.704,1.006184 -1.3224,1.00769 -0.762132,-4.5e-5 -1.375137,-0.610909 -1.37511,-1.373042 5e-5,-0.06263 0.0049,-0.125551 0.01344,-0.187586 a 0.30003049,0.30003049 0 0 0 -0.531234,-0.22841 c -0.260023,0.3247 -0.652169,0.514645 -1.0681514,0.515731 -0.613969,-2.72e-4 -1.149101,-0.406118 -1.318266,-0.996321 a 0.30003049,0.30003049 0 0 0 -0.460954,-0.161748 c -0.229329,0.160922 -0.503292,0.248774 -0.783415,0.250114 -0.76213,-4.5e-5 -1.375134,-0.612978 -1.37511,-1.37511 v -0.0021 a 0.30003049,0.30003049 0 0 0 -0.415995,-0.277502 c -0.168492,0.07184 -0.349616,0.110828 -0.532784,0.111621 -0.762183,2.7e-5 -1.373068,-0.61086 -1.373043,-1.373043 6.6e-5,-0.633981 0.430745,-1.18315 1.046448,-1.334285 a 0.30003049,0.30003049 0 0 0 0.22686,-0.326079 c -0.004,-0.03519 -0.0065,-0.07002 -0.0078,-0.105419 v -0.0021 c 0.001,-0.761269 0.611515,-1.371002 1.373043,-1.370975 0.198963,1.63e-4 0.395646,0.04352 0.576192,0.127124 a 0.30003049,0.30003049 0 0 0 0.406177,-0.164331 c 0.204378,-0.530091 0.710993,-0.878105 1.278992,-0.879016 0.522876,10e-4 0.999868,0.296792 1.230932,0.765844 a 0.30003049,0.30003049 0 0 0 0.5601734,-0.06046 c 0.152088,-0.614494 0.699184,-1.043338 1.332218,-1.043347 z m -4.4627764,1.955953 a 0.30000049,0.30000049 0 0 0 -0.07803,0.0015 c -0.947564,0.144758 -1.674258,0.96625 -1.674316,1.950785 -1.2e-5,0.311539 0.07417,0.608441 0.203605,0.871265 a 0.30000049,0.30000049 0 0 0 0.399975,0.136942 0.30000049,0.30000049 0 0 0 0.136943,-0.402559 c -0.08994,-0.182632 -0.140568,-0.387087 -0.14056,-0.605648 4.1e-5,-0.690681 0.50472,-1.256343 1.163753,-1.357023 a 0.30000049,0.30000049 0 0 0 0.252181,-0.342098 0.30000049,0.30000049 0 0 0 -0.263549,-0.253214 z m 4.0250774,0.751375 c -0.793776,4.8e-5 -1.4805604,0.470537 -1.7926564,1.150317 a 0.30000049,0.30000049 0 0 0 0.146245,0.398426 0.30000049,0.30000049 0 0 0 0.398425,-0.148312 c 0.2168044,-0.472221 0.6911254,-0.800951 1.2479864,-0.800984 a 0.30000049,0.30000049 0 0 0 0.300757,-0.300757 0.30000049,0.30000049 0 0 0 -0.300757,-0.29869 z m -3.1832684,1.332218 c -0.360193,-1.1e-5 -0.70082,0.09758 -0.992188,0.267168 a 0.30000049,0.30000049 0 0 0 -0.107487,0.41031 0.30000049,0.30000049 0 0 0 0.409794,0.107487 c 0.202712,-0.117984 0.437194,-0.183459 0.689881,-0.183451 0.762128,-2.5e-5 1.372993,0.610909 1.373042,1.373043 a 0.30000049,0.30000049 0 0 0 0.300757,0.29869 0.30000049,0.30000049 0 0 0 0.300757,-0.29869 c -7.1e-5,-1.086389 -0.888168,-1.974592 -1.974556,-1.974557 z m 5.1562744,0.496094 c -0.518627,-1.6e-5 -0.99545,0.202507 -1.347721,0.531234 a 0.30000049,0.30000049 0 0 0 -0.01395,0.423747 0.30000049,0.30000049 0 0 0 0.423747,0.01344 c 0.245728,-0.229304 0.574095,-0.366915 0.937927,-0.366903 0.762179,-2.3e-5 1.373068,0.610859 1.373043,1.373043 a 0.30000049,0.30000049 0 0 0 0.300757,0.298689 0.30000049,0.30000049 0 0 0 0.298689,-0.298689 c 3.5e-5,-1.086461 -0.886032,-1.97459 -1.972489,-1.974557 z m 0.259416,1.277958 a 0.30000049,0.30000049 0 0 0 -0.259416,0.151412 c -0.16688,0.289668 -0.262,0.625339 -0.262,0.982369 3.5e-5,0.461994 0.158493,0.890257 0.425814,1.226799 a 0.30000049,0.30000049 0 0 0 0.42168,0.04858 0.30000049,0.30000049 0 0 0 0.04909,-0.42168 c -0.186377,-0.234637 -0.297115,-0.52959 -0.29714,-0.853695 0,-0.250501 0.06582,-0.482188 0.181901,-0.683679 A 0.30000049,0.30000049 0 0 0 13.49886,18.68842 0.30000049,0.30000049 0 0 0 13.348482,18.64811 Z m -2.859257,3.377055 a 0.30000049,0.30000049 0 0 0 -0.173633,0.06563 0.30000049,0.30000049 0 0 0 -0.04703,0.42168 c 0.366447,0.459553 0.8044,0.996833 1.183391,1.425753 0.189493,0.21446 0.363493,0.402379 0.512113,0.543119 0.07431,0.07037 0.14231,0.128844 0.21084,0.177767 0.06853,0.04892 0.117365,0.109037 0.288871,0.109037 0.287518,0 0.499131,-0.205801 0.578259,-0.366902 0.07913,-0.161102 0.08578,-0.312643 0.08578,-0.312643 a 0.30003049,0.30003049 0 0 0 0.0021,-0.02119 l -0.0036,-0.623218 a 0.30000049,0.30000049 0 0 0 -0.301274,-0.29869 0.30000049,0.30000049 0 0 0 -0.298689,0.300757 l 0.0041,0.601514 c 0,0 -0.008,0.04854 -0.02739,0.08785 -0.0057,0.01169 -0.01136,0.0049 -0.01188,0.0098 -0.03117,-0.02448 -0.06582,-0.05294 -0.115239,-0.09974 -0.124947,-0.118323 -0.291306,-0.29664 -0.474389,-0.503846 -0.366171,-0.41441 -0.80111,-0.949131 -1.16427,-1.404565 a 0.30000049,0.30000049 0 0 0 -0.248047,-0.112138 z" />
  </g>
</svg>
