<?xml version="1.0" encoding="UTF-8" standalone="no"?>
<!-- Created with Inkscape (http://www.inkscape.org/) -->

<svg
   width="100"
   height="100"
   viewBox="0 0 26.458333 26.458333"
   version="1.1"
   id="svg1"
   inkscape:version="1.3.2 (091e20e, 2023-11-25, custom)"
   sodipodi:docname="social.svg"
   xmlns:inkscape="http://www.inkscape.org/namespaces/inkscape"
   xmlns:sodipodi="http://sodipodi.sourceforge.net/DTD/sodipodi-0.dtd"
   xmlns="http://www.w3.org/2000/svg"
   xmlns:svg="http://www.w3.org/2000/svg">
  <sodipodi:namedview
     id="namedview1"
     pagecolor="#ffffff"
     bordercolor="#000000"
     borderopacity="0.25"
     inkscape:showpageshadow="2"
     inkscape:pageopacity="0.0"
     inkscape:pagecheckerboard="0"
     inkscape:deskcolor="#d1d1d1"
     inkscape:document-units="mm"
     inkscape:zoom="4"
     inkscape:cx="59.125"
     inkscape:cy="45.875"
     inkscape:window-width="1920"
     inkscape:window-height="991"
     inkscape:window-x="-9"
     inkscape:window-y="-9"
     inkscape:window-maximized="1"
     inkscape:current-layer="layer1" />
  <defs
     id="defs1" />
  <g
     inkscape:label="Camada 1"
     inkscape:groupmode="layer"
     id="layer1">
    <path
       id="path26"
       style="color:#000000;fill:#000000;stroke-linecap:round;stroke-miterlimit:4.2;-inkscape-stroke:none"
       d="M 15.472441 4.0354126 C 14.646103 4.0531957 13.797207 4.3805321 13.138733 4.9681722 C 13.138661 4.9681469 13.136666 4.9676554 13.136666 4.9676554 L 13.10566 4.9960775 L 13.01781 5.0839274 C 11.664065 6.4376719 11.62266 8.6001596 12.888619 10.007658 C 12.948749 10.089558 13.003236 10.135834 13.011609 10.1446 L 13.015743 10.148218 L 17.761707 14.894698 L 17.974613 14.679724 C 19.506269 13.128989 21.089669 11.594857 22.615157 10.035046 L 22.619291 10.031429 L 22.622909 10.027295 C 23.905047 8.6202803 23.863381 6.4432993 22.504053 5.0839274 C 21.202359 3.7822467 19.16878 3.7254364 17.761707 4.8456991 C 17.089685 4.3102392 16.28663 4.0178911 15.472441 4.0354126 z M 20.03547 4.6302083 C 20.775397 4.6460026 21.510767 4.9381398 22.080306 5.5076742 C 23.217379 6.6447826 23.249889 8.4431008 22.181592 9.6190511 C 20.734433 11.098634 19.229288 12.562805 17.759639 14.045138 L 13.447241 9.7306722 L 13.441557 9.7265381 C 13.390257 9.6718681 13.345994 9.6199416 13.374894 9.6660767 L 13.361458 9.6428223 L 13.343888 9.6231852 C 12.272385 8.4473052 12.303332 6.6459016 13.441557 5.5076742 C 14.011089 4.9381532 14.746481 4.6464909 15.486393 4.6307251 C 16.226305 4.6149591 16.970692 4.8750767 17.558618 5.4120728 L 17.761707 5.5975911 L 17.962728 5.4120728 C 18.550655 4.8750641 19.295541 4.614414 20.03547 4.6302083 z M 3.6328532 12.830225 C 2.7711933 12.830225 2.0686076 13.53281 2.0686076 14.39447 L 2.0686076 21.14858 C 2.0686076 22.01024 2.7711933 22.712826 3.6328532 22.712826 C 4.4945131 22.712826 5.1970988 22.01024 5.1970988 21.14858 L 5.1970988 14.39447 C 5.1970988 13.53281 4.4945131 12.830225 3.6328532 12.830225 z M 7.8072754 13.325802 C 7.1561506 13.33256 6.5980308 13.569504 6.2321777 13.769702 A 0.30000001 0.30000001 0 0 0 6.1133219 14.175879 A 0.30000001 0.30000001 0 0 0 6.5194987 14.294735 C 6.8757859 14.099771 7.4407491 13.878975 8.0351685 13.935583 C 8.5288256 13.982603 9.1837599 14.258998 9.6955322 14.531413 C 10.207304 14.803827 10.578166 15.060579 10.578166 15.060579 L 10.65258 15.113289 L 14.925704 15.213025 C 14.925704 15.213025 15.20164 15.237905 15.47089 15.359269 C 15.740142 15.480635 15.951096 15.6417 15.96285 15.982487 C 15.97698 16.392503 15.855364 16.748535 15.648657 16.994312 C 15.441949 17.240087 15.155738 17.385454 14.769641 17.380851 A 0.30000001 0.30000001 0 0 0 14.712797 17.395321 L 10.558529 17.332275 A 0.30000001 0.30000001 0 0 0 10.254154 17.626831 A 0.30000001 0.30000001 0 0 0 10.54871 17.931722 L 14.757756 17.996318 A 0.30000001 0.30000001 0 0 0 14.822868 17.979781 C 15.349291 17.969366 15.804178 17.741555 16.107544 17.380851 C 16.422398 17.00649 16.580903 16.500507 16.562297 15.960783 C 16.541297 15.351855 16.095471 14.983188 15.71687 14.812533 C 15.338269 14.641877 14.976347 14.615129 14.976347 14.615129 L 14.966528 14.613062 L 10.838098 14.51746 C 10.775148 14.47433 10.474559 14.265663 9.9787191 14.001729 C 9.4343224 13.71195 8.7445815 13.399849 8.0920125 13.337687 C 7.9954788 13.328493 7.9002932 13.324836 7.8072754 13.325802 z M 3.6328532 13.429671 C 4.1724922 13.429671 4.5976523 13.854832 4.5976522 14.39447 L 4.5976522 21.14858 C 4.5976522 21.688219 4.1724922 22.113379 3.6328532 22.113379 C 3.0932142 22.113379 2.6680542 21.688219 2.6680542 21.14858 L 2.6680542 14.39447 C 2.6680542 13.854832 3.0932142 13.429671 3.6328532 13.429671 z M 23.127787 14.475602 C 23.03747 14.471707 22.950276 14.477139 22.868888 14.486454 C 22.543336 14.523704 22.281327 14.636833 22.281327 14.636833 L 22.277193 14.6389 L 17.265613 16.879073 A 0.30000001 0.30000001 0 0 0 17.115234 17.275431 A 0.30000001 0.30000001 0 0 0 17.511593 17.42581 L 22.519556 15.187703 C 22.525056 15.185403 22.717756 15.107443 22.937618 15.082284 C 23.04912 15.069524 23.16018 15.072849 23.240442 15.095719 C 23.320702 15.118609 23.367328 15.147741 23.409941 15.215092 C 23.674939 15.633965 23.521804 15.924675 23.273515 16.097725 C 22.935498 16.333315 18.104636 19.637876 18.017505 19.697506 C 17.963835 19.709276 16.712448 19.983745 15.261601 20.283 C 13.779984 20.5886 12.121379 20.909987 11.576038 20.958927 C 10.428463 21.061976 6.3825562 21.07985 6.3825562 21.07985 A 0.30000001 0.30000001 0 0 0 6.0838664 21.380607 A 0.30000001 0.30000001 0 0 0 6.3866903 21.679814 C 6.3866903 21.679814 10.367949 21.667977 11.628748 21.554757 C 12.28758 21.495627 13.896982 21.177594 15.38304 20.871077 C 16.869098 20.564561 18.20509 20.271631 18.20509 20.271631 L 18.261934 20.259745 L 18.31051 20.226672 C 18.31051 20.226672 23.237745 16.85413 23.617163 16.589685 C 24.089361 16.260574 24.329731 15.545632 23.91792 14.894698 C 23.791324 14.694601 23.595223 14.573396 23.406323 14.519527 C 23.311873 14.492592 23.218105 14.479497 23.127787 14.475602 z " />
  </g>
</svg>
