<?xml version="1.0" encoding="UTF-8" standalone="no"?>
<!-- Created with Inkscape (http://www.inkscape.org/) -->

<svg
   width="100"
   height="100"
   viewBox="0 0 26.458333 26.458333"
   version="1.1"
   id="svg1"
   inkscape:version="1.3.2 (091e20e, 2023-11-25, custom)"
   sodipodi:docname="suicidio.svg"
   xml:space="preserve"
   xmlns:inkscape="http://www.inkscape.org/namespaces/inkscape"
   xmlns:sodipodi="http://sodipodi.sourceforge.net/DTD/sodipodi-0.dtd"
   xmlns="http://www.w3.org/2000/svg"
   xmlns:svg="http://www.w3.org/2000/svg"><sodipodi:namedview
     id="namedview1"
     pagecolor="#ffffff"
     bordercolor="#000000"
     borderopacity="0.25"
     inkscape:showpageshadow="2"
     inkscape:pageopacity="0.0"
     inkscape:pagecheckerboard="0"
     inkscape:deskcolor="#d1d1d1"
     inkscape:document-units="mm"
     inkscape:zoom="4"
     inkscape:cx="36.875"
     inkscape:cy="60.625"
     inkscape:window-width="1920"
     inkscape:window-height="991"
     inkscape:window-x="-9"
     inkscape:window-y="-9"
     inkscape:window-maximized="1"
     inkscape:current-layer="layer1"
     showguides="true"><sodipodi:guide
       position="5.0169517,100.70775"
       orientation="0,-1"
       id="guide30"
       inkscape:locked="false" /></sodipodi:namedview><defs
     id="defs1" /><g
     inkscape:label="Camada 1"
     inkscape:groupmode="layer"
     id="layer1"><path
       id="path28"
       style="color:#000000;fill:#1a1a1a;stroke-linecap:round;stroke-linejoin:round;stroke-miterlimit:4.2;-inkscape-stroke:none"
       d="M 13.00024 1.6603638 C 10.919028 1.7309122 9.2237414 2.9817794 8.5214437 4.7500977 C 8.1584628 5.6640472 7.9647193 6.5082694 7.9044271 7.2930949 A 0.30000001 0.30000001 0 0 0 7.9064941 7.3003296 A 0.30000001 0.30000001 0 0 0 7.9762573 7.5116862 A 0.30000001 0.30000001 0 0 0 8.0331014 7.5783488 A 0.30000001 0.30000001 0 0 0 8.3989705 7.5442424 A 0.30000001 0.30000001 0 0 0 8.3994873 7.5442424 A 0.30000001 0.30000001 0 0 0 8.3994873 7.5437256 A 0.30000001 0.30000001 0 0 0 8.4490967 7.5018677 C 8.4490967 7.5018677 10.009334 5.2110514 13.22865 5.2110514 C 16.445485 5.2110514 18.009753 7.5411418 18.009753 7.5411418 A 0.30000001 0.30000001 0 0 0 18.049028 7.5752482 A 0.30000001 0.30000001 0 0 0 18.085718 7.6067708 A 0.30000001 0.30000001 0 0 0 18.274854 7.6708496 A 0.30000001 0.30000001 0 0 0 18.277437 7.6718831 A 0.30000001 0.30000001 0 0 0 18.278471 7.6718831 A 0.30000001 0.30000001 0 0 0 18.282088 7.6708496 A 0.30000001 0.30000001 0 0 0 18.436601 7.6124552 A 0.30000001 0.30000001 0 0 0 18.472774 7.5809326 A 0.30000001 0.30000001 0 0 0 18.493962 7.5566447 A 0.30000001 0.30000001 0 0 0 18.517216 7.5225382 A 0.30000001 0.30000001 0 0 0 18.533236 7.4910156 A 0.30000001 0.30000001 0 0 0 18.548739 7.4455404 A 0.30000001 0.30000001 0 0 0 18.554423 7.4176351 A 0.30000001 0.30000001 0 0 0 18.557524 7.3654419 A 0.30000001 0.30000001 0 0 0 18.558557 7.3535563 C 18.508242 6.5501889 18.3165 5.7046193 17.937406 4.7500977 C 17.23799 2.9890346 15.551905 1.7418081 13.482381 1.6619141 A 0.30000001 0.30000001 0 0 0 13.447241 1.6603638 L 13.011609 1.6603638 A 0.30000001 0.30000001 0 0 0 13.002307 1.6608805 A 0.30000001 0.30000001 0 0 0 13.00024 1.6603638 z M 13.021427 2.2598104 L 13.437423 2.2598104 C 15.291461 2.3226583 16.762369 3.418682 17.378784 4.970756 C 17.589263 5.5007206 17.729806 5.9844792 17.824752 6.4445679 C 17.013804 5.679111 15.482087 4.6110881 13.22865 4.6110881 C 10.983669 4.6110881 9.4555981 5.655076 8.6439168 6.4073608 C 8.7394825 5.9527281 8.8770282 5.4767801 9.0779989 4.970756 C 9.6944139 3.4186821 11.16739 2.3226581 13.021427 2.2598104 z M 15.82229 6.3029744 A 0.30000001 0.30000001 0 0 0 15.463139 6.5293172 C 15.191891 7.7356269 14.502685 8.8951962 13.812594 9.7518595 A 0.30000001 0.30000001 0 0 0 13.859619 10.174056 A 0.30000001 0.30000001 0 0 0 14.281299 10.12703 C 15.014009 9.2174622 15.748219 7.9960791 16.048633 6.6600586 A 0.30000001 0.30000001 0 0 0 15.82229 6.3029744 z M 10.650513 6.3789388 A 0.30000001 0.30000001 0 0 0 10.427787 6.7422241 C 10.739365 8.0467013 11.459616 9.2358029 12.177551 10.12703 C 15.509574 14.263326 19.878705 17.379692 21.455021 20.876762 L 17.984432 24.025407 C 17.626286 23.26346 16.918625 22.029666 16.154053 20.76359 C 15.305286 19.358096 14.521594 18.107422 14.521594 18.107422 A 0.30003001 0.30003001 0 0 0 14.515393 18.09967 C 13.395637 16.45134 11.779403 14.700083 10.486182 12.876733 C 9.5707978 11.586108 8.6790982 10.188515 8.5116252 8.4315267 A 0.30000001 0.30000001 0 0 0 8.1855469 8.1622925 A 0.30000001 0.30000001 0 0 0 7.9142456 8.4904378 C 8.097904 10.417229 9.069365 11.917619 9.9962891 13.224516 C 11.320783 15.091958 12.940103 16.847014 14.019299 18.435567 C 14.024199 18.443367 14.797541 19.678471 15.640389 21.074166 C 16.485884 22.474242 17.407193 24.063077 17.630965 24.611418 A 0.30003001 0.30003001 0 0 0 18.109489 24.720455 L 22.041032 21.156331 A 0.30003001 0.30003001 0 0 0 22.115446 20.8163 C 20.496048 16.977538 15.959515 13.866786 12.644706 9.7518595 C 11.968527 8.9124657 11.293583 7.7816906 11.011731 6.6016642 A 0.30000001 0.30000001 0 0 0 10.650513 6.3789388 z M 18.277437 8.0661743 A 0.30000001 0.30000001 0 0 0 17.954976 8.3416097 C 17.818771 10.03421 17.011344 11.392405 16.140617 12.640572 A 0.30000001 0.30000001 0 0 0 16.215031 13.058634 A 0.30000001 0.30000001 0 0 0 16.632576 12.98267 C 17.520339 11.710085 18.40352 10.244615 18.552873 8.3886353 A 0.30000001 0.30000001 0 0 0 18.277437 8.0661743 z M 9.7988851 14.173812 A 0.30000001 0.30000001 0 0 0 9.5859782 14.261662 C 7.3858339 16.442613 5.3233389 18.489698 4.3418538 20.8163 A 0.30003001 0.30003001 0 0 0 4.4178182 21.156331 L 8.3478109 24.720455 A 0.30003001 0.30003001 0 0 0 8.8278849 24.611418 C 9.0484904 24.070837 10.03851 22.385114 10.95127 20.894332 C 11.864029 19.40355 12.712919 18.066597 12.712919 18.066597 A 0.30000001 0.30000001 0 0 0 12.620935 17.652153 A 0.30000001 0.30000001 0 0 0 12.207007 17.744137 C 12.207007 17.744137 11.355645 19.08411 10.439673 20.580139 C 9.6102508 21.93481 8.8447509 23.246232 8.4764852 24.025407 L 5.005896 20.878829 C 5.9501019 18.780946 7.8677465 16.808717 10.007658 14.687476 A 0.30000001 0.30000001 0 0 0 10.009725 14.263729 A 0.30000001 0.30000001 0 0 0 9.7988851 14.173812 z " /></g></svg>
